<?xml version="1.0" encoding="UTF-8" standalone="no"?>
<!DOCTYPE svg PUBLIC "-//W3C//DTD SVG 1.1//EN" "http://www.w3.org/Graphics/SVG/1.1/DTD/svg11.dtd">
<svg width="100%" height="100%" viewBox="0 0 24 24" version="1.1" xmlns="http://www.w3.org/2000/svg" xmlns:xlink="http://www.w3.org/1999/xlink" xml:space="preserve" xmlns:serif="http://www.serif.com/" style="fill-rule:evenodd;clip-rule:evenodd;stroke-linejoin:round;stroke-miterlimit:2;">
    <path d="M18.2367 10.0399C18.3107 9.99371 18.3941 9.98394 18.4681 10.0302L22.6019 12.4159C22.6372 12.4362 22.6663 12.4662 22.6859 12.5019C22.7054 12.5378 22.7153 12.5792 22.7132 12.62V17.3827C22.7153 17.4235 22.7054 17.464 22.6859 17.4999C22.6663 17.5358 22.6373 17.5655 22.6019 17.5858L19.0511 19.6386C18.865 19.7499 18.6767 19.8584 18.4867 19.9628C18.4036 20.009 18.32 20.0089 18.2367 19.9628L14.1117 17.5858C14.0377 17.5397 14.0004 17.4838 14.0003 17.3915V12.62C13.998 12.5781 14.0083 12.5361 14.0296 12.4999C14.051 12.4637 14.0835 12.4351 14.1214 12.4169L18.2367 10.0399ZM16.7601 12.5458C16.5564 12.4811 16.3522 12.4624 16.1488 12.5458C15.9455 12.6293 15.7884 12.814 15.7884 13.0732V16.9355C15.7884 17.0372 15.8071 17.1297 15.8626 17.2128C15.9707 17.3884 16.1283 17.472 16.3314 17.4814C16.6641 17.4903 16.9144 17.2126 16.9144 16.8983V14.1181L16.9134 14.1142C16.9228 14.1235 16.932 14.1331 16.932 14.1425L19.2718 16.9452C19.3552 17.0377 19.4205 17.1395 19.513 17.2226C19.6815 17.3751 19.8966 17.4663 20.1234 17.4814C20.2801 17.4907 20.4281 17.4723 20.5667 17.3983C20.7517 17.2965 20.8538 17.1356 20.8538 16.9169V12.9804C20.817 12.7118 20.5765 12.4529 20.2161 12.4989C19.9287 12.5267 19.7249 12.7587 19.7249 13.0546V15.8661C19.7072 15.8483 19.698 15.8297 19.6888 15.8202L17.2279 12.87C17.1014 12.722 16.9542 12.6015 16.7601 12.5458Z" fill="#22C55E"/>
    <path d="M5.102,11.628C5.394,10.876 6.198,10.284 7.072,10.277L13.8,10.24L13.273,12.244L7.151,12.281C7.097,12.282 7.037,12.322 7.015,12.372L4.701,17.877C4.662,17.978 4.715,18.013 4.806,18.011L13.032,18.011L13.042,20.01L5,20C3.343,20 2,18.657 2,17L2,7C2,5.343 3.343,4 5,4L7.784,4C8.478,4 9.151,4.241 9.688,4.682L12.081,6.648C12.26,6.795 12.485,6.875 12.716,6.875L19,6.875C20.657,6.875 22,8.218 22,9.875L22,10.005L20.002,9.998L20,9.875C20,9.323 19.552,8.875 19,8.875L12.716,8.875C12.022,8.875 11.349,8.634 10.812,8.193L8.419,6.227C8.24,6.08 8.015,6 7.784,6L5,6C4.448,6 4,6.448 4,7L4,14.224L5.102,11.628Z" style="fill:rgb(100,115,139);"/>
</svg>
