<?xml version="1.0" encoding="UTF-8" standalone="no"?>
<!DOCTYPE svg PUBLIC "-//W3C//DTD SVG 1.1//EN" "http://www.w3.org/Graphics/SVG/1.1/DTD/svg11.dtd">
<svg width="100%" height="100%" viewBox="0 0 24 24" version="1.1" xmlns="http://www.w3.org/2000/svg" xmlns:xlink="http://www.w3.org/1999/xlink" xml:space="preserve" xmlns:serif="http://www.serif.com/" style="fill-rule:evenodd;clip-rule:evenodd;stroke-linejoin:round;stroke-miterlimit:2;">
    <g clip-path="url(#clip0_4_143)">
<path d="M22 11.8729V17.9529L19.5 20L15.625 18.5893V19.9879L13.4314 17.1214L19.825 17.6214V12.1464L22 11.8729ZM19.8686 12.1786L16.2814 10V11.4293L12.9871 12.3971L12 13.6643V16.5421L13.4129 17.1657V13.4779L19.8686 12.1786Z" fill="url(#paint0_linear_4_143)"/>
</g>
<defs>
<linearGradient id="paint0_linear_4_143" x1="17" y1="19.9686" x2="17" y2="10.0186" gradientUnits="userSpaceOnUse">
<stop stop-color="#0078D4"/>
<stop offset="0.16" stop-color="#1380DA"/>
<stop offset="0.53" stop-color="#3C91E5"/>
<stop offset="0.82" stop-color="#559CEC"/>
<stop offset="1" stop-color="#5EA0EF"/>
</linearGradient>
<clipPath id="clip0_4_143">
<rect width="24" height="24" fill="white"/>
</clipPath>
</defs>
    <path d="M5.102,11.628C5.394,10.876 6.198,10.284 7.072,10.277L13.8,10.24L13.273,12.244L7.151,12.281C7.097,12.282 7.037,12.322 7.015,12.372L4.701,17.877C4.662,17.978 4.715,18.013 4.806,18.011L13.032,18.011L13.042,20.01L5,20C3.343,20 2,18.657 2,17L2,7C2,5.343 3.343,4 5,4L7.784,4C8.478,4 9.151,4.241 9.688,4.682L12.081,6.648C12.26,6.795 12.485,6.875 12.716,6.875L19,6.875C20.657,6.875 22,8.218 22,9.875L22,10.005L20.002,9.998L20,9.875C20,9.323 19.552,8.875 19,8.875L12.716,8.875C12.022,8.875 11.349,8.634 10.812,8.193L8.419,6.227C8.24,6.08 8.015,6 7.784,6L5,6C4.448,6 4,6.448 4,7L4,14.224L5.102,11.628Z" style="fill:rgb(100,115,139);"/>
</svg>
