<?xml version="1.0" encoding="UTF-8" standalone="no"?>
<!DOCTYPE svg PUBLIC "-//W3C//DTD SVG 1.1//EN" "http://www.w3.org/Graphics/SVG/1.1/DTD/svg11.dtd">
<svg width="100%" height="100%" viewBox="0 0 24 24" version="1.1" xmlns="http://www.w3.org/2000/svg" xmlns:xlink="http://www.w3.org/1999/xlink" xml:space="preserve" xmlns:serif="http://www.serif.com/" style="fill-rule:evenodd;clip-rule:evenodd;">
    <path d="M14,12C14,11.448 14.448,11 15,11L22,11C22.552,11 23,11.448 23,12L23,19C23,19.552 22.552,20 22,20L15,20C14.448,20 14,19.552 14,19L14,12ZM14.818,14.091L14.818,19.182L22.182,19.182L22.182,14.091L14.818,14.091ZM22.182,13.273L22.182,11.818L14.818,11.818L14.818,13.273L22.182,13.273ZM16.046,15.501C16.046,15.274 16.229,15.091 16.455,15.091C16.682,15.091 16.865,15.274 16.865,15.501C16.865,15.727 16.682,15.911 16.455,15.911C16.229,15.911 16.046,15.727 16.046,15.501ZM17.682,15.501C17.682,15.274 17.865,15.091 18.092,15.091C18.318,15.091 18.502,15.274 18.502,15.501C18.502,15.727 18.318,15.911 18.092,15.911C17.865,15.911 17.682,15.727 17.682,15.501ZM19.318,15.501C19.318,15.274 19.502,15.091 19.728,15.091C19.955,15.091 20.138,15.274 20.138,15.501C20.138,15.727 19.955,15.911 19.728,15.911C19.502,15.911 19.318,15.727 19.318,15.501Z" style="fill:rgb(248,113,113);fill-rule:nonzero;stroke:rgb(248,113,113);stroke-width:0.5px;"/>
    <path d="M5.102,11.628C5.394,10.876 6.198,10.284 7.072,10.277L13.474,10.281L12.947,12.285L7.151,12.281C7.097,12.282 7.037,12.322 7.015,12.372L4.701,17.877C4.662,17.978 4.715,18.013 4.806,18.011L12.969,18.011L12.979,20.01L5,20C3.343,20 2,18.657 2,17L2,7C2,5.343 3.343,4 5,4L7.784,4C8.478,4 9.151,4.241 9.688,4.682L12.081,6.648C12.26,6.795 12.485,6.875 12.716,6.875L19,6.875C20.657,6.875 22,8.218 22,9.875L22,10.005L20.002,9.998L20,9.875C20,9.323 19.552,8.875 19,8.875L12.716,8.875C12.022,8.875 11.349,8.634 10.812,8.193L8.419,6.227C8.24,6.08 8.015,6 7.784,6L5,6C4.448,6 4,6.448 4,7L4,14.224L5.102,11.628Z" style="fill:rgb(100,115,139);"/>
</svg>
