<?xml version="1.0" encoding="UTF-8" standalone="no"?>
<!DOCTYPE svg PUBLIC "-//W3C//DTD SVG 1.1//EN" "http://www.w3.org/Graphics/SVG/1.1/DTD/svg11.dtd">
<svg width="100%" height="100%" viewBox="0 0 24 24" version="1.1" xmlns="http://www.w3.org/2000/svg" xmlns:xlink="http://www.w3.org/1999/xlink" xml:space="preserve" xmlns:serif="http://www.serif.com/" style="fill-rule:evenodd;clip-rule:evenodd;stroke-linejoin:round;stroke-miterlimit:2;">
    <g>
        <g>
            <path d="M14.1,14.419L14.1,18.464C14.1,19.245 14.733,19.879 15.514,19.879L22.586,19.879C23.367,19.879 24,19.245 24,18.464L24,14.419L19.791,17.009C19.337,17.289 18.763,17.289 18.309,17.009L14.1,14.419Z" style="fill:rgb(248,113,113);fill-rule:nonzero;"/>
            <path d="M24,13.589L24,13.514C24,12.733 23.367,12.1 22.586,12.1L15.514,12.1C14.733,12.1 14.1,12.733 14.1,13.514L14.1,13.589L18.679,16.407C18.907,16.547 19.193,16.547 19.421,16.407L24,13.589Z" style="fill:rgb(248,113,113);fill-rule:nonzero;"/>
        </g>
        <path d="M5.102,11.628C5.394,10.876 6.198,10.284 7.072,10.277L13.583,10.281L13.056,12.285L7.151,12.281C7.097,12.282 7.037,12.322 7.015,12.372L4.701,17.877C4.662,17.978 4.715,18.013 4.806,18.011L12.969,18.011L12.979,20.01L5,20C3.343,20 2,18.657 2,17L2,7C2,5.343 3.343,4 5,4L7.784,4C8.478,4 9.151,4.241 9.688,4.682L12.081,6.648C12.26,6.795 12.485,6.875 12.716,6.875L19,6.875C20.657,6.875 22,8.218 22,9.875L22,10.005L20.002,9.998L20,9.875C20,9.323 19.552,8.875 19,8.875L12.716,8.875C12.022,8.875 11.349,8.634 10.812,8.193L8.419,6.227C8.24,6.08 8.015,6 7.784,6L5,6C4.448,6 4,6.448 4,7L4,14.224L5.102,11.628Z" style="fill:rgb(100,115,139);"/>
    </g>
</svg>
