<?xml version="1.0" encoding="UTF-8" standalone="no"?>
<!DOCTYPE svg PUBLIC "-//W3C//DTD SVG 1.1//EN" "http://www.w3.org/Graphics/SVG/1.1/DTD/svg11.dtd">
<svg width="100%" height="100%" viewBox="0 0 24 24" version="1.1" xmlns="http://www.w3.org/2000/svg" xmlns:xlink="http://www.w3.org/1999/xlink" xml:space="preserve" xmlns:serif="http://www.serif.com/" style="fill-rule:evenodd;clip-rule:evenodd;">
    <path d="M20.39,16.636C20.703,16.603 20.941,16.333 20.93,16.008C20.92,15.684 20.649,15.424 20.325,15.424L20.303,15.424C19.968,15.435 19.708,15.716 19.719,16.052C19.73,16.214 19.795,16.354 19.892,16.452C19.524,17.177 18.962,17.706 18.118,18.15C17.545,18.453 16.95,18.561 16.355,18.485C15.868,18.421 15.49,18.204 15.252,17.847C14.906,17.317 14.873,16.744 15.165,16.171C15.371,15.759 15.695,15.457 15.901,15.305C15.857,15.165 15.793,14.927 15.76,14.754C14.192,15.889 14.354,17.425 14.83,18.15C15.187,18.691 15.912,19.026 16.712,19.026C16.928,19.026 17.145,19.005 17.361,18.951C18.746,18.68 19.795,17.858 20.39,16.636ZM22.293,15.294C21.471,14.332 20.26,13.802 18.875,13.802L18.702,13.802C18.605,13.607 18.399,13.477 18.172,13.477L18.151,13.477C17.815,13.488 17.556,13.769 17.567,14.105C17.577,14.429 17.848,14.689 18.172,14.689L18.194,14.689C18.432,14.678 18.637,14.526 18.724,14.321L18.919,14.321C19.741,14.321 20.519,14.559 21.223,15.024C21.763,15.381 22.153,15.846 22.369,16.409C22.553,16.863 22.542,17.306 22.347,17.685C22.045,18.258 21.536,18.572 20.866,18.572C20.433,18.572 20.022,18.442 19.805,18.345C19.687,18.453 19.47,18.626 19.319,18.734C19.784,18.951 20.26,19.07 20.714,19.07C21.753,19.07 22.52,18.496 22.813,17.923C23.126,17.296 23.105,16.214 22.293,15.294ZM16.799,16.82C16.809,17.144 17.08,17.404 17.404,17.404L17.426,17.404C17.761,17.393 18.021,17.112 18.01,16.776C17.999,16.452 17.729,16.192 17.404,16.192L17.383,16.192C17.361,16.192 17.328,16.192 17.307,16.203C16.863,15.467 16.68,14.667 16.744,13.802C16.788,13.153 17.004,12.59 17.383,12.125C17.696,11.725 18.302,11.53 18.713,11.519C19.86,11.498 20.346,12.925 20.379,13.499C20.519,13.531 20.757,13.607 20.92,13.661C20.79,11.909 19.708,11 18.67,11C17.696,11 16.799,11.703 16.442,12.742C15.944,14.126 16.269,15.457 16.874,16.506C16.82,16.581 16.788,16.701 16.799,16.82Z" style="fill:rgb(245,158,11);fill-rule:nonzero;stroke:rgb(245,158,11);stroke-width:0.25px;"/>
    <path d="M5.102,11.628C5.394,10.876 6.198,10.284 7.072,10.277L16.03,10.281L15.503,12.285L7.151,12.281C7.097,12.282 7.037,12.322 7.015,12.372L4.701,17.877C4.662,17.978 4.715,18.013 4.806,18.011L12.951,18.015L12.961,20.014L5,20C3.343,20 2,18.657 2,17L2,7C2,5.343 3.343,4 5,4L7.784,4C8.478,4 9.151,4.241 9.688,4.682L12.081,6.648C12.26,6.795 12.485,6.875 12.716,6.875L19,6.875C20.657,6.875 22,8.218 22,9.875L22,10.005L20.002,9.998L20,9.875C20,9.323 19.552,8.875 19,8.875L12.716,8.875C12.022,8.875 11.349,8.634 10.812,8.193L8.419,6.227C8.24,6.08 8.015,6 7.784,6L5,6C4.448,6 4,6.448 4,7L4,14.224L5.102,11.628Z" style="fill:rgb(100,115,139);"/>
</svg>
