<?xml version="1.0" encoding="UTF-8" standalone="no"?>
<!DOCTYPE svg PUBLIC "-//W3C//DTD SVG 1.1//EN" "http://www.w3.org/Graphics/SVG/1.1/DTD/svg11.dtd">
<svg width="100%" height="100%" viewBox="0 0 24 24" version="1.1" xmlns="http://www.w3.org/2000/svg" xmlns:xlink="http://www.w3.org/1999/xlink" xml:space="preserve" xmlns:serif="http://www.serif.com/" style="fill-rule:evenodd;clip-rule:evenodd;stroke-linejoin:round;stroke-miterlimit:2;">
    <path d="M24,17L23.5,17C23.224,17 23,17.224 23,17.5C23,17.776 22.776,18 22.5,18L20.5,18C20.224,18 20,17.776 20,17.5L20,13C20,12.735 19.895,12.48 19.707,12.293C19.52,12.105 19.265,12 19,12L15.5,12C15.224,12 15,11.776 15,11.5C15,11.224 14.776,11 14.5,11C14.224,11 14,11.224 14,11.5L14,14.5C14,14.776 14.224,15 14.5,15C14.776,15 15,14.776 15,14.5C15,14.224 15.224,14 15.5,14L17.5,14C17.776,14 18,14.224 18,14.5L18,19C18,19.265 18.105,19.52 18.293,19.707C18.48,19.895 18.735,20 19,20L22.5,20C22.776,20 23,20.224 23,20.5C23,20.776 23.224,21 23.5,21L24,21" style="fill:rgb(22,163,74);fill-rule:nonzero;"/>
    <path d="M5.102,11.628C5.394,10.876 6.198,10.284 7.072,10.277L13.577,10.28L13.05,12.284L7.151,12.281C7.097,12.282 7.037,12.322 7.015,12.372L4.701,17.877C4.662,17.978 4.715,18.013 4.806,18.011L12.93,18.012L12.94,20.011L5,20C3.343,20 2,18.657 2,17L2,7C2,5.343 3.343,4 5,4L7.784,4C8.478,4 9.151,4.241 9.688,4.682L12.081,6.648C12.26,6.795 12.485,6.875 12.716,6.875L19,6.875C20.657,6.875 22,8.218 22,9.875L22,10.005L20.002,9.998L20,9.875C20,9.323 19.552,8.875 19,8.875L12.716,8.875C12.022,8.875 11.349,8.634 10.812,8.193L8.419,6.227C8.24,6.08 8.015,6 7.784,6L5,6C4.448,6 4,6.448 4,7L4,14.224L5.102,11.628Z" style="fill:rgb(100,115,139);"/>
</svg>
