<?xml version="1.0" encoding="UTF-8" standalone="no"?>
<!DOCTYPE svg PUBLIC "-//W3C//DTD SVG 1.1//EN" "http://www.w3.org/Graphics/SVG/1.1/DTD/svg11.dtd">
<svg width="100%" height="100%" viewBox="0 0 24 24" version="1.1" xmlns="http://www.w3.org/2000/svg" xmlns:xlink="http://www.w3.org/1999/xlink" xml:space="preserve" xmlns:serif="http://www.serif.com/" style="fill-rule:evenodd;clip-rule:evenodd;stroke-linejoin:round;stroke-miterlimit:2;">
    <g clip-path="url(#clip0_4_143)">
<path d="M18 16.4225C18.5607 16.4225 19.0152 16.0095 19.0152 15.5C19.0152 14.9905 18.5607 14.5775 18 14.5775C17.4393 14.5775 16.9848 14.9905 16.9848 15.5C16.9848 16.0095 17.4393 16.4225 18 16.4225Z" fill="#2563EB"/>
<path d="M18 17.39C21.0085 17.39 23.4474 16.5438 23.4474 15.5C23.4474 14.4562 21.0085 13.61 18 13.61C14.9915 13.61 12.5526 14.4562 12.5526 15.5C12.5526 16.5438 14.9915 17.39 18 17.39Z" stroke="#2563EB"/>
<path d="M16.1988 16.445C17.703 18.8125 19.7289 20.3088 20.7237 19.7868C21.7185 19.2649 21.3055 16.9226 19.8013 14.555C18.297 12.1874 16.2711 10.6913 15.2763 11.2132C14.2815 11.7351 14.6945 14.0774 16.1988 16.445Z" stroke="#2563EB"/>
<path d="M16.1988 14.555C14.6945 16.9226 14.2815 19.2649 15.2763 19.7868C16.2711 20.3088 18.297 18.8125 19.8013 16.445C21.3055 14.0775 21.7185 11.7351 20.7237 11.2132C19.7289 10.6913 17.703 12.1875 16.1988 14.555Z" stroke="#2563EB"/>
</g>
<defs>
<clipPath id="clip0_4_143">
<rect width="12" height="11" fill="white" transform="translate(12 10)"/>
</clipPath>
</defs>
    <path d="M5.102,11.628C5.394,10.876 6.198,10.284 7.072,10.277L13.8,10.24L13.273,12.244L7.151,12.281C7.097,12.282 7.037,12.322 7.015,12.372L4.701,17.877C4.662,17.978 4.715,18.013 4.806,18.011L13.032,18.011L13.042,20.01L5,20C3.343,20 2,18.657 2,17L2,7C2,5.343 3.343,4 5,4L7.784,4C8.478,4 9.151,4.241 9.688,4.682L12.081,6.648C12.26,6.795 12.485,6.875 12.716,6.875L19,6.875C20.657,6.875 22,8.218 22,9.875L22,10.005L20.002,9.998L20,9.875C20,9.323 19.552,8.875 19,8.875L12.716,8.875C12.022,8.875 11.349,8.634 10.812,8.193L8.419,6.227C8.24,6.08 8.015,6 7.784,6L5,6C4.448,6 4,6.448 4,7L4,14.224L5.102,11.628Z" style="fill:rgb(100,115,139);"/>
</svg>
