<?xml version="1.0" encoding="UTF-8" standalone="no"?>
<!DOCTYPE svg PUBLIC "-//W3C//DTD SVG 1.1//EN" "http://www.w3.org/Graphics/SVG/1.1/DTD/svg11.dtd">
<svg width="100%" height="100%" viewBox="0 0 24 24" version="1.1" xmlns="http://www.w3.org/2000/svg" xmlns:xlink="http://www.w3.org/1999/xlink" xml:space="preserve" xmlns:serif="http://www.serif.com/" style="fill-rule:evenodd;clip-rule:evenodd;stroke-linejoin:round;stroke-miterlimit:2;">
    <path d="M16.772,13.404C17.039,14.362 16.485,15.358 15.552,15.597L15.058,15.724C15.02,15.977 15,16.236 15,16.5C15,16.777 15.022,17.047 15.063,17.311L15.52,17.425C16.462,17.661 17.022,18.666 16.747,19.63L16.59,20.185C16.962,20.523 17.385,20.799 17.846,20.994L18.264,20.539C18.931,19.81 20.051,19.811 20.718,20.539L21.14,21C21.6,20.807 22.024,20.534 22.396,20.198L22.228,19.596C21.962,18.638 22.516,17.642 23.448,17.403L23.942,17.276C23.98,17.023 24,16.764 24,16.5C24,16.224 23.978,15.953 23.937,15.689L23.481,15.575C22.539,15.339 21.979,14.334 22.253,13.37L22.411,12.816C22.039,12.477 21.615,12.202 21.154,12.006L20.737,12.461C20.069,13.19 18.95,13.19 18.282,12.461L17.86,12C17.4,12.193 16.977,12.466 16.605,12.802L16.772,13.404ZM19.5,17.818C18.822,17.818 18.273,17.228 18.273,16.5C18.273,15.772 18.822,15.182 19.5,15.182C20.178,15.182 20.727,15.772 20.727,16.5C20.727,17.228 20.178,17.818 19.5,17.818Z" style="fill:rgb(192,132,252);fill-rule:nonzero;"/>
    <path d="M5.102,11.628C5.394,10.876 6.198,10.284 7.072,10.277L16.03,10.281L15.503,12.285L7.151,12.281C7.097,12.282 7.037,12.322 7.015,12.372L4.701,17.877C4.662,17.978 4.715,18.013 4.806,18.011L12.963,18.012L12.973,20.011L5,20C3.343,20 2,18.657 2,17L2,7C2,5.343 3.343,4 5,4L7.784,4C8.478,4 9.151,4.241 9.688,4.682L12.081,6.648C12.26,6.795 12.485,6.875 12.716,6.875L19,6.875C20.657,6.875 22,8.218 22,9.875L22,10.005L20.002,9.998L20,9.875C20,9.323 19.552,8.875 19,8.875L12.716,8.875C12.022,8.875 11.349,8.634 10.812,8.193L8.419,6.227C8.24,6.08 8.015,6 7.784,6L5,6C4.448,6 4,6.448 4,7L4,14.224L5.102,11.628Z" style="fill:rgb(100,115,139);"/>
</svg>
