<?xml version="1.0" encoding="UTF-8" standalone="no"?>
<!DOCTYPE svg PUBLIC "-//W3C//DTD SVG 1.1//EN" "http://www.w3.org/Graphics/SVG/1.1/DTD/svg11.dtd">
<svg width="100%" height="100%" viewBox="0 0 24 24" version="1.1" xmlns="http://www.w3.org/2000/svg" xmlns:xlink="http://www.w3.org/1999/xlink" xml:space="preserve" xmlns:serif="http://www.serif.com/" style="fill-rule:evenodd;clip-rule:evenodd;stroke-linejoin:round;stroke-miterlimit:2;">
    <path d="M18.5,12.782C18.588,12.782 18.673,12.77 18.753,12.746L21.476,17.411C21.354,17.526 21.265,17.675 21.224,17.843L15.776,17.843C15.735,17.676 15.646,17.527 15.524,17.411L18.248,12.746C18.328,12.77 18.413,12.782 18.5,12.782ZM15.776,18.266C15.773,18.279 15.77,18.291 15.766,18.304L17.849,19.493C18.013,19.324 18.244,19.218 18.5,19.218C18.756,19.218 18.987,19.324 19.151,19.493L21.234,18.304C21.23,18.292 21.227,18.279 21.224,18.266L15.776,18.266ZM17.635,19.859L15.552,18.67C15.388,18.84 15.157,18.945 14.901,18.945C14.403,18.945 14,18.547 14,18.055C14,17.635 14.293,17.284 14.688,17.189L14.688,14.811C14.293,14.717 14,14.365 14,13.945C14,13.453 14.403,13.055 14.901,13.055C15.157,13.055 15.388,13.16 15.552,13.33L17.635,12.141C17.612,12.061 17.599,11.978 17.599,11.891C17.599,11.399 18.003,11 18.5,11C18.998,11 19.401,11.399 19.401,11.891C19.401,11.978 19.389,12.061 19.365,12.141L21.448,13.33C21.612,13.16 21.843,13.055 22.099,13.055C22.597,13.055 23,13.453 23,13.945C23,14.365 22.707,14.716 22.313,14.811L22.313,17.189C22.707,17.284 23,17.635 23,18.055C23,18.547 22.597,18.945 22.099,18.945C21.843,18.945 21.612,18.84 21.448,18.67L19.365,19.859C19.389,19.939 19.401,20.022 19.401,20.109C19.401,20.601 18.998,21 18.5,21C18.003,21 17.599,20.601 17.599,20.109C17.599,20.022 17.612,19.939 17.635,19.859ZM15.115,14.811C15.509,14.716 15.802,14.364 15.802,13.945C15.802,13.859 15.79,13.775 15.766,13.696L17.849,12.507C17.858,12.516 17.868,12.526 17.877,12.535L15.154,17.199C15.141,17.196 15.128,17.192 15.115,17.189L15.115,14.811ZM21.847,17.199C21.859,17.195 21.872,17.192 21.885,17.189L21.885,14.811C21.491,14.716 21.198,14.365 21.198,13.945C21.198,13.859 21.211,13.775 21.234,13.696L19.151,12.507C19.142,12.516 19.133,12.526 19.123,12.535L21.847,17.199Z" style="fill:rgb(244,114,182);"/>
    <path d="M5.102,11.628C5.394,10.876 6.198,10.284 7.072,10.277L16.03,10.281L15.503,12.285L7.151,12.281C7.097,12.282 7.037,12.322 7.015,12.372L4.701,17.877C4.662,17.978 4.715,18.013 4.806,18.011L12.988,18.014L12.998,20.013L5,20C3.343,20 2,18.657 2,17L2,7C2,5.343 3.343,4 5,4L7.784,4C8.478,4 9.151,4.241 9.688,4.682L12.081,6.648C12.26,6.795 12.485,6.875 12.716,6.875L19,6.875C20.657,6.875 22,8.218 22,9.875L22,10.005L20.002,9.998L20,9.875C20,9.323 19.552,8.875 19,8.875L12.716,8.875C12.022,8.875 11.349,8.634 10.812,8.193L8.419,6.227C8.24,6.08 8.015,6 7.784,6L5,6C4.448,6 4,6.448 4,7L4,14.224L5.102,11.628Z" style="fill:rgb(100,115,139);"/>
</svg>
