<?xml version="1.0" encoding="UTF-8" standalone="no"?>
<!DOCTYPE svg PUBLIC "-//W3C//DTD SVG 1.1//EN" "http://www.w3.org/Graphics/SVG/1.1/DTD/svg11.dtd">
<svg width="100%" height="100%" viewBox="0 0 24 24" version="1.1" xmlns="http://www.w3.org/2000/svg" xmlns:xlink="http://www.w3.org/1999/xlink" xml:space="preserve" xmlns:serif="http://www.serif.com/" style="fill-rule:evenodd;clip-rule:evenodd;stroke-linejoin:round;stroke-miterlimit:2;">
    <path d="M16,12C15.448,12 15,12.448 15,13L15,14.556C15,15.108 15.448,15.556 16,15.556L17.556,15.556C18.108,15.556 18.556,15.108 18.556,14.556L18.556,13C18.556,12.448 18.108,12 17.556,12L16,12ZM16,16.444C15.448,16.444 15,16.892 15,17.444L15,19C15,19.552 15.448,20 16,20L17.556,20C18.108,20 18.556,19.552 18.556,19L18.556,17.444C18.556,16.892 18.108,16.444 17.556,16.444L16,16.444ZM19.444,13C19.444,12.448 19.892,12 20.444,12L22,12C22.552,12 23,12.448 23,13L23,14.556C23,15.108 22.552,15.556 22,15.556L20.444,15.556C19.892,15.556 19.444,15.108 19.444,14.556L19.444,13ZM20.444,16.444C19.892,16.444 19.444,16.892 19.444,17.444L19.444,19C19.444,19.552 19.892,20 20.444,20L22,20C22.552,20 23,19.552 23,19L23,17.444C23,16.892 22.552,16.444 22,16.444L20.444,16.444Z" style="fill:rgb(248,113,113);"/>
    <path d="M5.102,11.628C5.394,10.876 6.198,10.284 7.072,10.277L14.832,10.281L14.305,12.285L7.151,12.281C7.097,12.282 7.037,12.322 7.015,12.372L4.701,17.877C4.662,17.978 4.715,18.013 4.806,18.011L12.951,18.015L12.961,20.014L5,20C3.343,20 2,18.657 2,17L2,7C2,5.343 3.343,4 5,4L7.784,4C8.478,4 9.151,4.241 9.688,4.682L12.081,6.648C12.26,6.795 12.485,6.875 12.716,6.875L19,6.875C20.657,6.875 22,8.218 22,9.875L22,10.005L20.002,9.998L20,9.875C20,9.323 19.552,8.875 19,8.875L12.716,8.875C12.022,8.875 11.349,8.634 10.812,8.193L8.419,6.227C8.24,6.08 8.015,6 7.784,6L5,6C4.448,6 4,6.448 4,7L4,14.224L5.102,11.628Z" style="fill:rgb(100,115,139);"/>
</svg>
