<?xml version="1.0" encoding="UTF-8" standalone="no"?>
<!DOCTYPE svg PUBLIC "-//W3C//DTD SVG 1.1//EN" "http://www.w3.org/Graphics/SVG/1.1/DTD/svg11.dtd">
<svg width="100%" height="100%" viewBox="0 0 24 24" version="1.1" xmlns="http://www.w3.org/2000/svg" xmlns:xlink="http://www.w3.org/1999/xlink" xml:space="preserve" xmlns:serif="http://www.serif.com/" style="fill-rule:evenodd;clip-rule:evenodd;stroke-linejoin:round;stroke-miterlimit:2;">
    <path d="M22.85,15.562L22.837,15.528L21.613,12.209C21.588,12.144 21.544,12.089 21.487,12.052C21.43,12.015 21.363,11.997 21.296,12.001C21.229,12.005 21.165,12.03 21.112,12.073C21.059,12.117 21.021,12.177 21.003,12.244L20.176,14.871L16.827,14.871L15.999,12.244C15.982,12.176 15.944,12.116 15.891,12.072C15.838,12.029 15.774,12.004 15.706,12.001C15.639,11.997 15.573,12.015 15.516,12.051C15.459,12.089 15.415,12.144 15.39,12.209L14.163,15.527L14.15,15.56C13.974,16.038 13.952,16.563 14.088,17.056C14.224,17.548 14.511,17.981 14.905,18.289L14.909,18.293L14.92,18.301L16.786,19.752L17.709,20.477L18.272,20.918C18.338,20.97 18.418,20.998 18.501,20.998C18.583,20.998 18.663,20.97 18.729,20.918L19.292,20.477L20.215,19.752L22.092,18.292L22.097,18.289C22.49,17.98 22.776,17.547 22.911,17.056C23.047,16.564 23.026,16.04 22.85,15.562Z" style="fill:rgb(226,67,41);fill-rule:nonzero;"/>
    <path d="M22.85,15.562L22.837,15.528C22.241,15.656 21.678,15.918 21.19,16.297L18.5,18.409C19.416,19.129 20.214,19.754 20.214,19.754L22.091,18.294L22.096,18.29C22.489,17.982 22.776,17.549 22.912,17.057C23.048,16.565 23.026,16.04 22.85,15.562Z" style="fill:rgb(252,109,38);fill-rule:nonzero;"/>
    <path d="M16.786,19.754L17.709,20.479L18.272,20.92C18.338,20.972 18.418,21 18.501,21C18.583,21 18.663,20.972 18.729,20.92L19.292,20.479L20.215,19.754C20.215,19.754 19.416,19.127 18.5,18.409C17.584,19.127 16.786,19.754 16.786,19.754Z" style="fill:rgb(252,163,38);fill-rule:nonzero;"/>
    <path d="M15.809,16.297C15.322,15.917 14.759,15.654 14.163,15.527L14.15,15.56C13.974,16.038 13.952,16.563 14.088,17.056C14.224,17.548 14.511,17.981 14.905,18.289L14.909,18.293L14.92,18.301L16.786,19.752C16.786,19.752 17.583,19.127 18.5,18.407L15.809,16.297Z" style="fill:rgb(252,109,38);fill-rule:nonzero;"/>
    <path d="M5.102,11.628C5.394,10.876 6.198,10.284 7.072,10.277L14.912,10.28L14.385,12.284L7.151,12.281C7.097,12.282 7.037,12.322 7.015,12.372L4.701,17.877C4.662,17.978 4.715,18.013 4.806,18.011L12.951,18.015L12.961,20.014L5,20C3.343,20 2,18.657 2,17L2,7C2,5.343 3.343,4 5,4L7.784,4C8.478,4 9.151,4.241 9.688,4.682L12.081,6.648C12.26,6.795 12.485,6.875 12.716,6.875L19,6.875C20.657,6.875 22,8.218 22,9.875L22,10.005L20.002,9.998L20,9.875C20,9.323 19.552,8.875 19,8.875L12.716,8.875C12.022,8.875 11.349,8.634 10.812,8.193L8.419,6.227C8.24,6.08 8.015,6 7.784,6L5,6C4.448,6 4,6.448 4,7L4,14.224L5.102,11.628Z" style="fill:rgb(100,115,139);"/>
</svg>
