<?xml version="1.0" encoding="UTF-8" standalone="no"?>
<!DOCTYPE svg PUBLIC "-//W3C//DTD SVG 1.1//EN" "http://www.w3.org/Graphics/SVG/1.1/DTD/svg11.dtd">
<svg width="100%" height="100%" viewBox="0 0 24 24" version="1.1" xmlns="http://www.w3.org/2000/svg" xmlns:xlink="http://www.w3.org/1999/xlink" xml:space="preserve" xmlns:serif="http://www.serif.com/" style="fill-rule:evenodd;clip-rule:evenodd;stroke-linejoin:round;stroke-miterlimit:2;">
    <g clip-path="url(#clip0_4_143)">
<path fill-rule="evenodd" clip-rule="evenodd" d="M18.6174 19.9892C18.7348 20.0511 18.8678 20.0833 19.0017 20.0833L19.0014 20.0816C19.1369 20.0819 19.2701 20.0494 19.3875 19.9874L23.051 18.0477C23.2876 17.9216 23.4353 17.687 23.4353 17.4356V13.5595C23.4352 13.4356 23.3997 13.3138 23.3322 13.2064C23.2648 13.099 23.1678 13.0097 23.051 12.9474L19.3875 11.0068C19.1573 10.8866 18.8491 10.8866 18.6171 11.0068L14.949 12.9466C14.7115 13.071 14.5647 13.3064 14.5647 13.5587V17.4347C14.5648 17.5588 14.6003 17.6806 14.6677 17.7881C14.7352 17.8957 14.8322 17.9852 14.949 18.0477L15.9103 18.5555C16.3762 18.7657 16.5432 18.7657 16.7551 18.7657C17.4439 18.7657 17.8401 18.3832 17.8401 17.7172V13.8899C17.8401 13.8353 17.7924 13.7932 17.7347 13.7932H17.2705C17.2109 13.7932 17.1641 13.8353 17.1641 13.8899V17.7156C17.1641 18.0115 16.8312 18.3058 16.2863 18.0561L15.2829 17.5247C15.248 17.507 15.226 17.4718 15.226 17.4347V13.5587C15.226 13.5217 15.2486 13.4855 15.2841 13.467L18.9463 11.5298C18.9802 11.5113 19.0251 11.5113 19.0591 11.5298L22.722 13.467C22.7566 13.4864 22.7786 13.5208 22.7786 13.5595V17.4356C22.7786 17.4726 22.7566 17.5087 22.7227 17.5264L19.0583 19.4653C19.0269 19.4821 18.9787 19.4821 18.9448 19.4653L18.005 18.9541C17.977 18.9389 17.9412 18.9339 17.9139 18.9482C17.6539 19.0835 17.6044 19.1012 17.3608 19.1794C17.3005 19.1985 17.2114 19.2316 17.3941 19.3253L18.6174 19.9892ZM18.1941 16.172C18.1941 16.7378 18.5303 17.4124 20.1336 17.4124L20.1283 17.4164C21.2895 17.4164 21.9554 16.9969 21.9554 16.2654C21.9554 15.5397 21.4207 15.3464 20.2943 15.2093C19.1569 15.0714 19.0414 15 19.0414 14.7553C19.0414 14.5535 19.1395 14.2844 19.9824 14.2844C20.7355 14.2844 21.0125 14.4333 21.1271 14.8982C21.1372 14.9419 21.1803 14.9739 21.2299 14.9739H21.7059C21.7207 14.9739 21.7353 14.9711 21.7488 14.9656C21.7623 14.9602 21.7745 14.9522 21.7845 14.9423C21.7945 14.9324 21.8021 14.9206 21.8069 14.9078C21.8117 14.895 21.8135 14.8814 21.8123 14.868C21.7389 14.0658 21.1574 13.6925 19.9843 13.6925C18.9395 13.6925 18.3158 14.0961 18.3158 14.7738C18.3158 15.5095 18.9359 15.7121 19.9393 15.8029C21.1391 15.9105 21.2326 16.0711 21.2326 16.2872C21.2326 16.6627 20.9043 16.8226 20.1319 16.8226C19.1624 16.8226 18.9496 16.5996 18.8781 16.1575C18.8698 16.1101 18.8258 16.0753 18.7735 16.0753H18.3002C18.2414 16.0753 18.1941 16.1182 18.1941 16.172Z" fill="#2DD4BF"/>
</g>
<defs>
<clipPath id="clip0_4_143">
<rect width="24" height="24" fill="white"/>
</clipPath>
</defs>
    <path d="M5.102,11.628C5.394,10.876 6.198,10.284 7.072,10.277L13.8,10.24L13.273,12.244L7.151,12.281C7.097,12.282 7.037,12.322 7.015,12.372L4.701,17.877C4.662,17.978 4.715,18.013 4.806,18.011L13.032,18.011L13.042,20.01L5,20C3.343,20 2,18.657 2,17L2,7C2,5.343 3.343,4 5,4L7.784,4C8.478,4 9.151,4.241 9.688,4.682L12.081,6.648C12.26,6.795 12.485,6.875 12.716,6.875L19,6.875C20.657,6.875 22,8.218 22,9.875L22,10.005L20.002,9.998L20,9.875C20,9.323 19.552,8.875 19,8.875L12.716,8.875C12.022,8.875 11.349,8.634 10.812,8.193L8.419,6.227C8.24,6.08 8.015,6 7.784,6L5,6C4.448,6 4,6.448 4,7L4,14.224L5.102,11.628Z" style="fill:rgb(100,115,139);"/>
</svg>
