<?xml version="1.0" encoding="UTF-8" standalone="no"?>
<!DOCTYPE svg PUBLIC "-//W3C//DTD SVG 1.1//EN" "http://www.w3.org/Graphics/SVG/1.1/DTD/svg11.dtd">
<svg width="100%" height="100%" viewBox="0 0 24 24" version="1.1" xmlns="http://www.w3.org/2000/svg" xmlns:xlink="http://www.w3.org/1999/xlink" xml:space="preserve" xmlns:serif="http://www.serif.com/" style="fill-rule:evenodd;clip-rule:evenodd;stroke-linejoin:round;stroke-miterlimit:2;">
    <path d="M14,13.283C14,12.575 14.575,12 15.283,12L17.567,12C18.276,12 18.85,12.575 18.85,13.283L18.85,19.416C18.85,20.124 18.276,20.699 17.567,20.699L15.283,20.699C14.575,20.699 14,20.124 14,19.416L14,13.283ZM20.151,13.283C20.151,12.575 20.725,12 21.434,12L22.717,12C23.426,12 24,12.575 24,13.283L24,14.566C24,15.275 23.426,15.849 22.717,15.849L21.434,15.849C20.725,15.849 20.151,15.275 20.151,14.566L20.151,13.283ZM21.151,16.849C20.598,16.849 20.151,17.297 20.151,17.849L20.151,19.699C20.151,20.251 20.598,20.699 21.151,20.699L23,20.699C23.552,20.699 24,20.251 24,19.699L24,17.849C24,17.297 23.552,16.849 23,16.849L21.151,16.849Z" style="fill:rgb(14,165,233);"/>
    <path d="M5.102,11.628C5.394,10.876 6.198,10.284 7.072,10.277L14.218,10.28L13.691,12.284L7.151,12.281C7.097,12.282 7.037,12.322 7.015,12.372L4.701,17.877C4.662,17.978 4.715,18.013 4.806,18.011L12.966,18.01L12.976,20.009L5,20C3.343,20 2,18.657 2,17L2,7C2,5.343 3.343,4 5,4L7.784,4C8.478,4 9.151,4.241 9.688,4.682L12.081,6.648C12.26,6.795 12.485,6.875 12.716,6.875L19,6.875C20.657,6.875 22,8.218 22,9.875L22,10.005L20.002,9.998L20,9.875C20,9.323 19.552,8.875 19,8.875L12.716,8.875C12.022,8.875 11.349,8.634 10.812,8.193L8.419,6.227C8.24,6.08 8.015,6 7.784,6L5,6C4.448,6 4,6.448 4,7L4,14.224L5.102,11.628Z" style="fill:rgb(100,115,139);"/>
</svg>
