<?xml version="1.0" encoding="UTF-8" standalone="no"?>
<!DOCTYPE svg PUBLIC "-//W3C//DTD SVG 1.1//EN" "http://www.w3.org/Graphics/SVG/1.1/DTD/svg11.dtd">
<svg width="100%" height="100%" viewBox="0 0 24 24" version="1.1" xmlns="http://www.w3.org/2000/svg" xmlns:xlink="http://www.w3.org/1999/xlink" xml:space="preserve" xmlns:serif="http://www.serif.com/" style="fill-rule:evenodd;clip-rule:evenodd;stroke-linejoin:round;stroke-miterlimit:2;">
    <path d="M14,18.993C14.016,19.189 14.086,19.387 14.269,19.651C14.487,19.966 14.86,20.138 15.133,19.861C15.317,19.674 17.306,16.242 18.264,14.941C18.29,14.903 18.325,14.873 18.366,14.852C18.407,14.831 18.452,14.82 18.498,14.82C18.544,14.82 18.589,14.831 18.63,14.852C18.671,14.873 18.706,14.903 18.732,14.941C19.691,16.242 21.68,19.674 21.863,19.861C22.136,20.138 22.51,19.966 22.727,19.651C22.941,19.342 23,19.126 23,18.894C23,18.736 19.903,13.045 19.591,12.571C19.291,12.116 19.199,12.016 18.692,12L18.305,12C17.797,12.016 17.706,12.115 17.405,12.571C17.1,13.035 14.124,18.502 14,18.877L14,18.993Z" style="fill:rgb(161,161,170);fill-rule:nonzero;"/>
    <path d="M5.102,11.628C5.394,10.876 6.198,10.284 7.072,10.277L16.03,10.281L15.503,12.285L7.151,12.281C7.097,12.282 7.037,12.322 7.015,12.372L4.701,17.877C4.662,17.978 4.715,18.013 4.806,18.011L12.428,18.015L12.438,20.014L5,20C3.343,20 2,18.657 2,17L2,7C2,5.343 3.343,4 5,4L7.784,4C8.478,4 9.151,4.241 9.688,4.682L12.081,6.648C12.26,6.795 12.485,6.875 12.716,6.875L19,6.875C20.657,6.875 22,8.218 22,9.875L22,10.005L20.002,9.998L20,9.875C20,9.323 19.552,8.875 19,8.875L12.716,8.875C12.022,8.875 11.349,8.634 10.812,8.193L8.419,6.227C8.24,6.08 8.015,6 7.784,6L5,6C4.448,6 4,6.448 4,7L4,14.224L5.102,11.628Z" style="fill:rgb(100,115,139);"/>
</svg>
