<?xml version="1.0" encoding="UTF-8" standalone="no"?>
<!DOCTYPE svg PUBLIC "-//W3C//DTD SVG 1.1//EN" "http://www.w3.org/Graphics/SVG/1.1/DTD/svg11.dtd">
<svg width="100%" height="100%" viewBox="0 0 24 24" version="1.1" xmlns="http://www.w3.org/2000/svg" xmlns:xlink="http://www.w3.org/1999/xlink" xml:space="preserve" xmlns:serif="http://www.serif.com/" style="fill-rule:evenodd;clip-rule:evenodd;stroke-linejoin:round;stroke-miterlimit:2;">
    <path d="M18.935,17.535L17.665,16.28L17.68,16.264C18.527,15.323 19.16,14.21 19.535,13L21,13L21,11.999L17.5,11.999L17.5,11L16.5,11L16.5,12L13,12L13,13L18.585,13C18.239,13.988 17.701,14.898 17,15.675C16.544,15.17 16.155,14.607 15.845,14L14.845,14C15.22,14.833 15.723,15.602 16.335,16.28L13.79,18.79L14.5,19.5L17,17L18.555,18.555L18.935,17.535ZM21.75,15L20.75,15L18.5,21L19.5,21L20.06,19.5L22.435,19.5L23,21L24,21L21.75,15ZM20.44,18.5L21.25,16.335L22.06,18.5L20.44,18.5Z" style="fill:rgb(192,132,252);"/>
    <path d="M5.102,11.628C5.394,10.876 6.198,10.284 7.072,10.277L12.577,10.279L12.05,12.283L7.151,12.281C7.097,12.282 7.037,12.322 7.015,12.372L4.701,17.877C4.662,17.978 4.715,18.013 4.806,18.011L12.915,18.01L12.925,20.009L5,20C3.343,20 2,18.657 2,17L2,7C2,5.343 3.343,4 5,4L7.784,4C8.478,4 9.151,4.241 9.688,4.682L12.081,6.648C12.26,6.795 12.485,6.875 12.716,6.875L19,6.875C20.657,6.875 22,8.218 22,9.875L22,10.005L20.002,9.998L20,9.875C20,9.323 19.552,8.875 19,8.875L12.716,8.875C12.022,8.875 11.349,8.634 10.812,8.193L8.419,6.227C8.24,6.08 8.015,6 7.784,6L5,6C4.448,6 4,6.448 4,7L4,14.224L5.102,11.628Z" style="fill:rgb(100,115,139);"/>
</svg>
