<?xml version="1.0" encoding="UTF-8" standalone="no"?>
<!DOCTYPE svg PUBLIC "-//W3C//DTD SVG 1.1//EN" "http://www.w3.org/Graphics/SVG/1.1/DTD/svg11.dtd">
<svg width="100%" height="100%" viewBox="0 0 24 24" version="1.1" xmlns="http://www.w3.org/2000/svg" xmlns:xlink="http://www.w3.org/1999/xlink" xml:space="preserve" xmlns:serif="http://www.serif.com/" style="fill-rule:evenodd;clip-rule:evenodd;">
    <path d="M13.95,14.654C14.107,14.38 14.011,14.031 13.734,13.877C13.459,13.723 13.109,13.82 12.952,14.094L11.511,16.609C11.353,16.884 11.45,17.232 11.726,17.387C12.002,17.54 12.352,17.443 12.508,17.17L13.95,14.654ZM17.557,12.725C17.715,12.451 17.618,12.102 17.342,11.948C17.066,11.794 16.716,11.891 16.559,12.165L15.118,14.68C14.96,14.955 15.057,15.303 15.333,15.458C15.609,15.612 15.959,15.515 16.116,15.241L17.557,12.725ZM23.338,12.726C23.496,12.451 23.399,12.102 23.123,11.948C22.847,11.794 22.497,11.891 22.34,12.165L20.899,14.681C20.741,14.955 20.838,15.304 21.114,15.458C21.39,15.612 21.74,15.515 21.897,15.241L23.338,12.726ZM19.73,14.654C19.888,14.38 19.791,14.031 19.515,13.877C19.239,13.723 18.889,13.82 18.733,14.094L17.291,16.609C17.134,16.884 17.23,17.232 17.507,17.387C17.782,17.54 18.132,17.443 18.289,17.17L19.73,14.654Z" style="fill:rgb(74,222,128);fill-rule:nonzero;stroke:rgb(74,222,128);stroke-width:0.25px;"/>
    <path d="M5.102,11.628C5.394,10.876 6.198,10.284 7.072,10.277L16.03,10.281L15.503,12.285L7.151,12.281C7.097,12.282 7.037,12.322 7.015,12.372L4.701,17.877C4.662,17.978 4.715,18.013 4.806,18.011L10.415,18.011L10.425,20.01L5,20C3.343,20 2,18.657 2,17L2,7C2,5.343 3.343,4 5,4L7.784,4C8.478,4 9.151,4.241 9.688,4.682L12.081,6.648C12.26,6.795 12.485,6.875 12.716,6.875L19,6.875C20.657,6.875 22,8.218 22,9.875L22,10.005L20.002,9.998L20,9.875C20,9.323 19.552,8.875 19,8.875L12.716,8.875C12.022,8.875 11.349,8.634 10.812,8.193L8.419,6.227C8.24,6.08 8.015,6 7.784,6L5,6C4.448,6 4,6.448 4,7L4,14.224L5.102,11.628Z" style="fill:rgb(100,115,139);"/>
</svg>
