<?xml version="1.0" encoding="UTF-8" standalone="no"?>
<!DOCTYPE svg PUBLIC "-//W3C//DTD SVG 1.1//EN" "http://www.w3.org/Graphics/SVG/1.1/DTD/svg11.dtd">
<svg width="100%" height="100%" viewBox="0 0 24 24" version="1.1" xmlns="http://www.w3.org/2000/svg" xmlns:xlink="http://www.w3.org/1999/xlink" xml:space="preserve" xmlns:serif="http://www.serif.com/" style="fill-rule:evenodd;clip-rule:evenodd;stroke-linejoin:round;stroke-miterlimit:2;">
    <path d="M23.151,14.33C23.087,14.38 21.954,15.018 21.954,16.436C21.954,18.076 23.395,18.657 23.438,18.671C23.431,18.707 23.209,19.466 22.679,20.24C22.205,20.921 21.711,21.601 20.959,21.601C20.208,21.601 20.014,21.164 19.146,21.164C18.301,21.164 18,21.615 17.312,21.615C16.625,21.615 16.145,20.985 15.593,20.211C14.954,19.302 14.438,17.891 14.438,16.551C14.438,14.402 15.835,13.262 17.211,13.262C17.941,13.262 18.551,13.742 19.009,13.742C19.446,13.742 20.127,13.233 20.958,13.233C21.273,13.233 22.406,13.262 23.151,14.33ZM20.564,12.323C20.908,11.915 21.151,11.349 21.151,10.783C21.151,10.705 21.144,10.625 21.13,10.561C20.57,10.582 19.905,10.934 19.504,11.399C19.188,11.757 18.894,12.323 18.894,12.897C18.894,12.983 18.909,13.07 18.915,13.097C18.951,13.104 19.008,13.112 19.066,13.112C19.568,13.112 20.199,12.775 20.564,12.323Z" style="fill:rgb(161,161,170);fill-rule:nonzero;"/>
    <path d="M5.102,11.628C5.394,10.876 6.198,10.284 7.072,10.277L16.03,10.281L15.503,12.285L7.151,12.281C7.097,12.282 7.037,12.322 7.015,12.372L4.701,17.877C4.662,17.978 4.715,18.013 4.806,18.011L12.915,18.01L12.925,20.009L5,20C3.343,20 2,18.657 2,17L2,7C2,5.343 3.343,4 5,4L7.784,4C8.478,4 9.151,4.241 9.688,4.682L12.081,6.648C12.26,6.795 12.485,6.875 12.716,6.875L19,6.875C20.657,6.875 22,8.218 22,9.875L22,10.005L20.002,9.998L20,9.875C20,9.323 19.552,8.875 19,8.875L12.716,8.875C12.022,8.875 11.349,8.634 10.812,8.193L8.419,6.227C8.24,6.08 8.015,6 7.784,6L5,6C4.448,6 4,6.448 4,7L4,14.224L5.102,11.628Z" style="fill:rgb(100,115,139);"/>
</svg>
