<?xml version="1.0" encoding="UTF-8" standalone="no"?>
<!DOCTYPE svg PUBLIC "-//W3C//DTD SVG 1.1//EN" "http://www.w3.org/Graphics/SVG/1.1/DTD/svg11.dtd">
<svg width="100%" height="100%" viewBox="0 0 24 24" version="1.1" xmlns="http://www.w3.org/2000/svg" xmlns:xlink="http://www.w3.org/1999/xlink" xml:space="preserve" xmlns:serif="http://www.serif.com/" style="fill-rule:evenodd;clip-rule:evenodd;stroke-linejoin:round;stroke-miterlimit:2;">
    <mask id="mask0_38272_281" style="mask-type:alpha" maskUnits="userSpaceOnUse" x="14" y="11" width="10" height="10">
<path fill-rule="evenodd" clip-rule="evenodd" d="M21.0912 20.9317C21.2487 20.9931 21.4283 20.9891 21.5872 20.9126L23.6461 19.922C23.8624 19.8179 24 19.5989 24 19.3587V12.6413C24 12.4011 23.8624 12.1822 23.6461 12.0781L21.5872 11.0874C21.3786 10.987 21.1345 11.0116 20.9513 11.1447C20.9252 11.1637 20.9003 11.1849 20.8769 11.2083L16.9355 14.8042L15.2187 13.501C15.0589 13.3797 14.8354 13.3896 14.6869 13.5246L14.1363 14.0255C13.9547 14.1906 13.9545 14.4763 14.1359 14.6417L15.6247 16L14.1359 17.3583C13.9545 17.5237 13.9547 17.8094 14.1363 17.9745L14.6869 18.4754C14.8354 18.6104 15.0589 18.6204 15.2187 18.4991L16.9355 17.1959L20.8769 20.7917C20.9392 20.8541 21.0125 20.901 21.0912 20.9317ZM21.5015 13.7299L18.5109 16L21.5015 18.2701V13.7299Z" fill="white"/>
</mask>
<g mask="url(#mask0_38272_281)">
<path d="M23.6461 12.0796L21.5857 11.0875C21.3472 10.9727 21.0622 11.0212 20.875 11.2083L14.1299 17.3583C13.9484 17.5237 13.9486 17.8094 14.1303 17.9745L14.6813 18.4754C14.8298 18.6104 15.0535 18.6204 15.2134 18.499L23.3361 12.337C23.6086 12.1303 24 12.3246 24 12.6667V12.6427C24 12.4026 23.8625 12.1838 23.6461 12.0796Z" fill="#0065A9"/>
<g filter="url(#filter0_d_38272_281)">
<path d="M23.6461 19.9204L21.5857 20.9125C21.3472 21.0273 21.0622 20.9788 20.875 20.7917L14.1299 14.6417C13.9484 14.4763 13.9486 14.1906 14.1303 14.0255L14.6813 13.5246C14.8298 13.3896 15.0535 13.3796 15.2134 13.501L23.3361 19.663C23.6086 19.8697 24 19.6754 24 19.3333V19.3573C24 19.5974 23.8625 19.8162 23.6461 19.9204Z" fill="#007ACC"/>
</g>
<g filter="url(#filter1_d_38272_281)">
<path d="M21.5858 20.9126C21.3472 21.0274 21.0622 20.9788 20.875 20.7917C21.1056 21.0223 21.5 20.8589 21.5 20.5328V11.4672C21.5 11.141 21.1056 10.9777 20.875 11.2083C21.0622 11.0211 21.3472 10.9726 21.5858 11.0874L23.6459 12.0781C23.8623 12.1822 24 12.4011 24 12.6413V19.3587C24 19.5989 23.8623 19.8179 23.6459 19.922L21.5858 20.9126Z" fill="#1F9CF0"/>
</g>
<g style="mix-blend-mode:overlay" opacity="0.25">
<path fill-rule="evenodd" clip-rule="evenodd" d="M21.0851 20.9318C21.2426 20.9931 21.4222 20.9892 21.5812 20.9127L23.64 19.922C23.8563 19.8179 23.9939 19.599 23.9939 19.3588V12.6414C23.9939 12.4012 23.8564 12.1822 23.64 12.0781L21.5812 11.0874C21.3726 10.987 21.1284 11.0116 20.9453 11.1447C20.9191 11.1638 20.8942 11.185 20.8708 11.2084L16.9294 14.8042L15.2126 13.501C15.0528 13.3797 14.8293 13.3896 14.6809 13.5247L14.1302 14.0255C13.9487 14.1907 13.9485 14.4763 14.1298 14.6417L15.6186 16.0001L14.1298 17.3584C13.9485 17.5238 13.9487 17.8094 14.1302 17.9746L14.6809 18.4755C14.8293 18.6105 15.0528 18.6204 15.2126 18.4991L16.9294 17.1959L20.8708 20.7917C20.9332 20.8541 21.0064 20.9011 21.0851 20.9318ZM21.4954 13.7299L18.5048 16.0001L21.4954 18.2702V13.7299Z" fill="url(#paint0_linear_38272_281)"/>
</g>
</g>
<defs>
<filter id="filter0_d_38272_281" x="13.1606" y="12.5829" width="11.6727" height="9.22458" filterUnits="userSpaceOnUse" color-interpolation-filters="sRGB">
<feFlood flood-opacity="0" result="BackgroundImageFix"/>
<feColorMatrix in="SourceAlpha" type="matrix" values="0 0 0 0 0 0 0 0 0 0 0 0 0 0 0 0 0 0 127 0" result="hardAlpha"/>
<feOffset/>
<feGaussianBlur stdDeviation="0.416667"/>
<feColorMatrix type="matrix" values="0 0 0 0 0 0 0 0 0 0 0 0 0 0 0 0 0 0 0.25 0"/>
<feBlend mode="overlay" in2="BackgroundImageFix" result="effect1_dropShadow_38272_281"/>
<feBlend mode="normal" in="SourceGraphic" in2="effect1_dropShadow_38272_281" result="shape"/>
</filter>
<filter id="filter1_d_38272_281" x="20.0417" y="10.1924" width="4.79167" height="11.6151" filterUnits="userSpaceOnUse" color-interpolation-filters="sRGB">
<feFlood flood-opacity="0" result="BackgroundImageFix"/>
<feColorMatrix in="SourceAlpha" type="matrix" values="0 0 0 0 0 0 0 0 0 0 0 0 0 0 0 0 0 0 127 0" result="hardAlpha"/>
<feOffset/>
<feGaussianBlur stdDeviation="0.416667"/>
<feColorMatrix type="matrix" values="0 0 0 0 0 0 0 0 0 0 0 0 0 0 0 0 0 0 0.25 0"/>
<feBlend mode="overlay" in2="BackgroundImageFix" result="effect1_dropShadow_38272_281"/>
<feBlend mode="normal" in="SourceGraphic" in2="effect1_dropShadow_38272_281" result="shape"/>
</filter>
<linearGradient id="paint0_linear_38272_281" x1="18.9939" y1="11.0258" x2="18.9939" y2="20.9743" gradientUnits="userSpaceOnUse">
<stop stop-color="white"/>
<stop offset="1" stop-color="white" stop-opacity="0"/>
</linearGradient>
</defs>
    <path d="M5.102,11.628C5.394,10.876 6.198,10.284 7.072,10.277L13.8,10.24L13.273,12.244L7.151,12.281C7.097,12.282 7.037,12.322 7.015,12.372L4.701,17.877C4.662,17.978 4.715,18.013 4.806,18.011L13.032,18.011L13.042,20.01L5,20C3.343,20 2,18.657 2,17L2,7C2,5.343 3.343,4 5,4L7.784,4C8.478,4 9.151,4.241 9.688,4.682L12.081,6.648C12.26,6.795 12.485,6.875 12.716,6.875L19,6.875C20.657,6.875 22,8.218 22,9.875L22,10.005L20.002,9.998L20,9.875C20,9.323 19.552,8.875 19,8.875L12.716,8.875C12.022,8.875 11.349,8.634 10.812,8.193L8.419,6.227C8.24,6.08 8.015,6 7.784,6L5,6C4.448,6 4,6.448 4,7L4,14.224L5.102,11.628Z" style="fill:rgb(100,115,139);"/>
</svg>
