<?xml version="1.0" encoding="UTF-8" standalone="no"?>
<!DOCTYPE svg PUBLIC "-//W3C//DTD SVG 1.1//EN" "http://www.w3.org/Graphics/SVG/1.1/DTD/svg11.dtd">
<svg width="100%" height="100%" viewBox="0 0 24 24" version="1.1" xmlns="http://www.w3.org/2000/svg" xmlns:xlink="http://www.w3.org/1999/xlink" xml:space="preserve" xmlns:serif="http://www.serif.com/" style="fill-rule:evenodd;clip-rule:evenodd;stroke-linejoin:round;stroke-miterlimit:2;">
    <path d="M23.456,12.443C23.166,12.166 22.774,12.007 22.363,12C21.952,11.993 21.554,12.139 21.253,12.407C21.238,12.42 21.226,12.436 21.218,12.454C21.21,12.472 21.205,12.491 21.205,12.51C21.205,12.549 21.221,12.587 21.25,12.615L21.447,12.81C21.473,12.834 21.507,12.849 21.543,12.851C21.58,12.854 21.616,12.844 21.645,12.823C21.801,12.71 21.992,12.65 22.189,12.65C22.369,12.649 22.545,12.7 22.695,12.795C22.845,12.89 22.962,13.025 23.031,13.183C23.1,13.342 23.118,13.517 23.083,13.685C23.047,13.853 22.961,14.008 22.833,14.129C21.574,15.329 19.894,11.966 16.081,13.696C16.016,13.725 15.958,13.766 15.911,13.818C15.864,13.869 15.828,13.929 15.806,13.994C15.785,14.059 15.777,14.128 15.785,14.196C15.792,14.264 15.815,14.329 15.85,14.389L16.504,15.467C16.572,15.579 16.684,15.661 16.815,15.695C16.946,15.73 17.086,15.714 17.205,15.65L17.221,15.642L17.208,15.65L17.498,15.495C17.821,15.304 18.126,15.087 18.41,14.846C18.439,14.822 18.476,14.809 18.515,14.809C18.553,14.809 18.59,14.822 18.619,14.846C18.637,14.859 18.651,14.875 18.661,14.895C18.67,14.914 18.676,14.935 18.676,14.956C18.676,14.976 18.672,14.997 18.663,15.016C18.655,15.035 18.642,15.052 18.626,15.066C18.327,15.319 18.005,15.547 17.664,15.746L17.655,15.746L17.365,15.9C17.243,15.967 17.104,16.001 16.963,16.001C16.818,16.001 16.675,15.964 16.549,15.895C16.422,15.826 16.317,15.727 16.244,15.608L15.626,14.589C14.439,15.388 13.718,16.929 14.105,18.883C14.112,18.916 14.13,18.945 14.157,18.967C14.184,18.988 14.218,19 14.253,19L14.957,19C14.994,19 15.029,18.987 15.057,18.964C15.084,18.941 15.102,18.909 15.106,18.875C15.138,18.637 15.259,18.418 15.447,18.26C15.636,18.102 15.878,18.014 16.129,18.014C16.381,18.014 16.623,18.102 16.812,18.26C17,18.418 17.121,18.637 17.153,18.875C17.157,18.909 17.175,18.941 17.203,18.964C17.23,18.987 17.266,19 17.303,19L17.989,19C18.025,19 18.061,18.987 18.088,18.964C18.115,18.941 18.133,18.909 18.138,18.875C18.17,18.637 18.292,18.42 18.48,18.262C18.669,18.104 18.911,18.017 19.161,18.017C19.412,18.017 19.654,18.104 19.843,18.262C20.031,18.42 20.153,18.637 20.185,18.875C20.19,18.909 20.207,18.941 20.235,18.964C20.262,18.987 20.297,19 20.334,19L21.012,19C21.051,19 21.089,18.985 21.117,18.959C21.145,18.933 21.161,18.897 21.162,18.859C21.178,17.949 21.436,16.902 22.17,16.378C24.714,14.564 24.046,13.008 23.456,12.443ZM20.862,15.188L20.377,14.956C20.377,14.906 20.39,14.857 20.415,14.814C20.44,14.77 20.477,14.733 20.521,14.707C20.566,14.681 20.616,14.666 20.668,14.664C20.721,14.662 20.772,14.673 20.819,14.695C20.866,14.717 20.905,14.751 20.934,14.792C20.964,14.834 20.981,14.881 20.985,14.931C20.99,14.98 20.981,15.03 20.959,15.075C20.937,15.121 20.904,15.16 20.862,15.189L20.862,15.188Z" style="fill:rgb(45,212,191);fill-rule:nonzero;"/>
    <path d="M5.102,11.628C5.394,10.876 6.198,10.284 7.072,10.277L16.03,10.281L15.503,12.285L7.151,12.281C7.097,12.282 7.037,12.322 7.015,12.372L4.701,17.877C4.662,17.978 4.715,18.013 4.806,18.011L13.997,18.012L14.007,20.011L5,20C3.343,20 2,18.657 2,17L2,7C2,5.343 3.343,4 5,4L7.784,4C8.478,4 9.151,4.241 9.688,4.682L12.081,6.648C12.26,6.795 12.485,6.875 12.716,6.875L19,6.875C20.657,6.875 22,8.218 22,9.875L22,10.005L20.002,9.998L20,9.875C20,9.323 19.552,8.875 19,8.875L12.716,8.875C12.022,8.875 11.349,8.634 10.812,8.193L8.419,6.227C8.24,6.08 8.015,6 7.784,6L5,6C4.448,6 4,6.448 4,7L4,14.224L5.102,11.628Z" style="fill:rgb(100,115,139);"/>
</svg>
