<?xml version="1.0" encoding="UTF-8" standalone="no"?>
<!DOCTYPE svg PUBLIC "-//W3C//DTD SVG 1.1//EN" "http://www.w3.org/Graphics/SVG/1.1/DTD/svg11.dtd">
<svg width="100%" height="100%" viewBox="0 0 24 24" version="1.1" xmlns="http://www.w3.org/2000/svg" xmlns:xlink="http://www.w3.org/1999/xlink" xml:space="preserve" xmlns:serif="http://www.serif.com/" style="fill-rule:evenodd;clip-rule:evenodd;stroke-linejoin:round;stroke-miterlimit:2;">
    <rect x="16.75" y="13.75" width="4.5" height="4.5" style="fill:rgb(14,165,233);fill-rule:nonzero;"/>
    <path d="M17.125,11.125C17.225,11.125 17.32,11.165 17.39,11.235C17.461,11.305 17.5,11.4 17.5,11.5L17.5,11.875L18.625,11.875L18.625,11.5C18.625,11.4 18.665,11.305 18.735,11.235C18.805,11.165 18.901,11.125 19,11.125C19.1,11.125 19.195,11.165 19.265,11.235C19.336,11.305 19.375,11.4 19.375,11.5L19.375,11.875L20.5,11.875L20.5,11.5C20.5,11.4 20.54,11.305 20.61,11.235C20.68,11.165 20.776,11.125 20.875,11.125C20.975,11.125 21.07,11.165 21.14,11.235C21.211,11.305 21.25,11.4 21.25,11.5L21.25,11.875L21.625,11.875C22.023,11.875 22.404,12.033 22.686,12.314C22.967,12.596 23.125,12.977 23.125,13.375L23.125,13.75L23.5,13.75C23.6,13.75 23.695,13.79 23.765,13.86C23.836,13.93 23.875,14.025 23.875,14.125C23.875,14.225 23.836,14.32 23.765,14.39C23.695,14.461 23.6,14.5 23.5,14.5L23.125,14.5L23.125,15.625L23.5,15.625C23.6,15.625 23.695,15.665 23.765,15.735C23.836,15.805 23.875,15.9 23.875,16C23.875,16.099 23.836,16.195 23.765,16.265C23.695,16.336 23.6,16.375 23.5,16.375L23.125,16.375L23.125,17.5L23.5,17.5C23.6,17.5 23.695,17.54 23.765,17.61C23.836,17.68 23.875,17.776 23.875,17.875C23.875,17.975 23.836,18.07 23.765,18.14C23.695,18.211 23.6,18.25 23.5,18.25L23.125,18.25L23.125,18.625C23.125,19.023 22.967,19.404 22.686,19.686C22.404,19.967 22.023,20.125 21.625,20.125L21.25,20.125L21.25,20.5C21.25,20.6 21.211,20.695 21.14,20.765C21.07,20.836 20.975,20.875 20.875,20.875C20.776,20.875 20.68,20.836 20.61,20.765C20.54,20.695 20.5,20.6 20.5,20.5L20.5,20.125L19.375,20.125L19.375,20.5C19.375,20.6 19.336,20.695 19.265,20.765C19.195,20.836 19.1,20.875 19,20.875C18.901,20.875 18.805,20.836 18.735,20.765C18.665,20.695 18.625,20.6 18.625,20.5L18.625,20.125L17.5,20.125L17.5,20.5C17.5,20.6 17.461,20.695 17.39,20.765C17.32,20.836 17.225,20.875 17.125,20.875C17.026,20.875 16.93,20.836 16.86,20.765C16.79,20.695 16.75,20.6 16.75,20.5L16.75,20.125L16.375,20.125C15.977,20.125 15.596,19.967 15.314,19.686C15.033,19.404 14.875,19.023 14.875,18.625L14.875,18.25L14.5,18.25C14.4,18.25 14.305,18.211 14.235,18.14C14.165,18.07 14.125,17.975 14.125,17.875C14.125,17.776 14.165,17.68 14.235,17.61C14.305,17.54 14.4,17.5 14.5,17.5L14.875,17.5L14.875,16.375L14.5,16.375C14.4,16.375 14.305,16.336 14.235,16.265C14.165,16.195 14.125,16.099 14.125,16C14.125,15.9 14.165,15.805 14.235,15.735C14.305,15.665 14.4,15.625 14.5,15.625L14.875,15.625L14.875,14.5L14.5,14.5C14.4,14.5 14.305,14.461 14.235,14.39C14.165,14.32 14.125,14.225 14.125,14.125C14.125,14.025 14.165,13.93 14.235,13.86C14.305,13.79 14.4,13.75 14.5,13.75L14.875,13.75L14.875,13.375C14.875,12.977 15.033,12.596 15.314,12.314C15.596,12.033 15.977,11.875 16.375,11.875L16.75,11.875L16.75,11.5C16.75,11.4 16.79,11.305 16.86,11.235C16.93,11.165 17.026,11.125 17.125,11.125ZM16,13.375C16,13.275 16.04,13.18 16.11,13.11C16.18,13.04 16.276,13 16.375,13L21.625,13C21.725,13 21.82,13.04 21.89,13.11C21.961,13.18 22,13.275 22,13.375L22,18.625C22,18.725 21.961,18.82 21.89,18.89C21.82,18.961 21.725,19 21.625,19L16.375,19C16.276,19 16.18,18.961 16.11,18.89C16.04,18.82 16,18.725 16,18.625L16,13.375Z" style="fill:rgb(14,165,233);"/>
    <path d="M5.102,11.628C5.394,10.876 6.198,10.284 7.072,10.277L14.96,10.28L14.433,12.284L7.151,12.281C7.097,12.282 7.037,12.322 7.015,12.372L4.701,17.877C4.662,17.978 4.715,18.013 4.806,18.011L12.951,18.015L12.961,20.014L5,20C3.343,20 2,18.657 2,17L2,7C2,5.343 3.343,4 5,4L7.784,4C8.478,4 9.151,4.241 9.688,4.682L12.081,6.648C12.26,6.795 12.485,6.875 12.716,6.875L19,6.875C20.657,6.875 22,8.218 22,9.875L22,10.005L20.002,9.998L20,9.875C20,9.323 19.552,8.875 19,8.875L12.716,8.875C12.022,8.875 11.349,8.634 10.812,8.193L8.419,6.227C8.24,6.08 8.015,6 7.784,6L5,6C4.448,6 4,6.448 4,7L4,14.224L5.102,11.628Z" style="fill:rgb(100,115,139);"/>
</svg>
