<?xml version="1.0" encoding="UTF-8" standalone="no"?>
<!DOCTYPE svg PUBLIC "-//W3C//DTD SVG 1.1//EN" "http://www.w3.org/Graphics/SVG/1.1/DTD/svg11.dtd">
<svg width="100%" height="100%" viewBox="0 0 24 24" version="1.1" xmlns="http://www.w3.org/2000/svg" xmlns:xlink="http://www.w3.org/1999/xlink" xml:space="preserve" xmlns:serif="http://www.serif.com/" style="fill-rule:evenodd;clip-rule:evenodd;stroke-linejoin:round;stroke-miterlimit:2;">
    <path d="M18.841,12C18.271,12 17.81,12.462 17.81,13.032L17.81,13.651L16.159,13.651C15.703,13.651 15.333,14.02 15.333,14.476L15.333,15.714C15.333,15.942 15.518,16.127 15.746,16.127L15.894,16.127C16.433,16.127 16.924,16.515 16.978,17.052C17.04,17.67 16.557,18.191 15.952,18.191L15.746,18.191C15.518,18.191 15.333,18.375 15.333,18.603L15.333,19.841C15.333,20.297 15.703,20.667 16.159,20.667L17.397,20.667C17.625,20.667 17.81,20.482 17.81,20.254L17.81,20.107C17.81,19.567 18.198,19.076 18.735,19.022C19.353,18.96 19.873,19.443 19.873,20.048L19.873,20.254C19.873,20.482 20.058,20.667 20.286,20.667L21.524,20.667C21.98,20.667 22.349,20.297 22.349,19.841L22.349,18.191L22.968,18.191C23.538,18.191 24,17.729 24,17.159C24,16.589 23.538,16.127 22.968,16.127L22.349,16.127L22.349,14.476C22.349,14.02 21.98,13.651 21.524,13.651L19.873,13.651L19.873,13.032C19.873,12.462 19.411,12 18.841,12Z" style="fill:rgb(14,165,233);fill-rule:nonzero;"/>
    <path d="M5.102,11.628C5.394,10.876 6.198,10.284 7.072,10.277L16.03,10.281L15.503,12.285L7.151,12.281C7.097,12.282 7.037,12.322 7.015,12.372L4.701,17.877C4.662,17.978 4.715,18.013 4.806,18.011L12.915,18.01L12.925,20.009L5,20C3.343,20 2,18.657 2,17L2,7C2,5.343 3.343,4 5,4L7.784,4C8.478,4 9.151,4.241 9.688,4.682L12.081,6.648C12.26,6.795 12.485,6.875 12.716,6.875L19,6.875C20.657,6.875 22,8.218 22,9.875L22,10.005L20.002,9.998L20,9.875C20,9.323 19.552,8.875 19,8.875L12.716,8.875C12.022,8.875 11.349,8.634 10.812,8.193L8.419,6.227C8.24,6.08 8.015,6 7.784,6L5,6C4.448,6 4,6.448 4,7L4,14.224L5.102,11.628Z" style="fill:rgb(100,115,139);"/>
</svg>
