<?xml version="1.0" encoding="UTF-8" standalone="no"?>
<!DOCTYPE svg PUBLIC "-//W3C//DTD SVG 1.1//EN" "http://www.w3.org/Graphics/SVG/1.1/DTD/svg11.dtd">
<svg width="100%" height="100%" viewBox="0 0 24 24" version="1.1" xmlns="http://www.w3.org/2000/svg" xmlns:xlink="http://www.w3.org/1999/xlink" xml:space="preserve" xmlns:serif="http://www.serif.com/" style="fill-rule:evenodd;clip-rule:evenodd;stroke-linecap:round;stroke-linejoin:round;">
    <path d="M14,14.625L14,12L16.625,12M20.125,12L22.75,12L22.75,14.625" style="fill:none;fill-rule:nonzero;stroke:rgb(22,163,74);stroke-width:1.7px;"/>
    <path d="M14,12L17.862,15.862C18.191,16.19 18.375,16.635 18.375,17.1M18.375,17.1L18.375,20M18.375,17.1C18.375,16.635 18.56,16.19 18.888,15.862L22.75,12" style="fill:none;fill-rule:nonzero;stroke:rgb(22,163,74);stroke-width:1.7px;"/>
    <path d="M5.102,11.628C5.394,10.876 6.198,10.284 7.072,10.277L12.452,10.281L11.925,12.285L7.151,12.281C7.097,12.282 7.037,12.322 7.015,12.372L4.701,17.877C4.662,17.978 4.715,18.013 4.806,18.011L12.965,18.01L12.975,20.009L5,20C3.343,20 2,18.657 2,17L2,7C2,5.343 3.343,4 5,4L7.784,4C8.478,4 9.151,4.241 9.688,4.682L12.081,6.648C12.26,6.795 12.485,6.875 12.716,6.875L19,6.875C20.657,6.875 22,8.218 22,9.875L22,10.005L20.002,9.998L20,9.875C20,9.323 19.552,8.875 19,8.875L12.716,8.875C12.022,8.875 11.349,8.634 10.812,8.193L8.419,6.227C8.24,6.08 8.015,6 7.784,6L5,6C4.448,6 4,6.448 4,7L4,14.224L5.102,11.628Z" style="fill:rgb(100,115,139);"/>
</svg>
