<?xml version="1.0" encoding="UTF-8" standalone="no"?>
<!DOCTYPE svg PUBLIC "-//W3C//DTD SVG 1.1//EN" "http://www.w3.org/Graphics/SVG/1.1/DTD/svg11.dtd">
<svg width="100%" height="100%" viewBox="0 0 24 24" version="1.1" xmlns="http://www.w3.org/2000/svg" xmlns:xlink="http://www.w3.org/1999/xlink" xml:space="preserve" xmlns:serif="http://www.serif.com/" style="fill-rule:evenodd;clip-rule:evenodd;stroke-linejoin:round;stroke-miterlimit:2;">
    <path d="M19.599,12.733C20.233,12.209 20.514,9.11 20.788,7.996C21.063,6.882 22.198,6.938 22.198,6.938C22.198,6.938 21.903,7.451 22.023,7.834C22.143,8.216 22.967,8.559 22.967,8.559L22.789,9.027C22.789,9.027 22.419,8.979 22.198,9.421C21.977,9.862 22.34,14.233 22.34,14.233C22.34,14.233 21.013,16.85 21.013,17.954C21.013,19.059 21.536,19.985 21.536,19.985L20.802,19.985C20.802,19.985 19.726,18.704 19.505,18.064C19.285,17.424 19.373,16.783 19.373,16.783C19.373,16.783 18.203,16.717 17.166,16.783C16.128,16.85 15.436,17.741 15.312,18.24C15.187,18.739 15.135,19.985 15.135,19.985L14.555,19.985C14.202,18.895 13.921,18.504 14.073,17.954C14.495,16.43 14.412,15.566 14.315,15.181C14.217,14.796 13.556,14.46 13.556,14.46C13.88,13.801 14.21,13.484 15.631,13.451C17.052,13.418 18.965,13.258 19.599,12.733Z" style="fill:rgb(234,88,12);fill-rule:nonzero;"/>
    <path d="M15.909,17.89C15.909,17.89 16.059,19.278 16.855,19.985L17.538,19.985C16.855,19.211 16.781,17.196 16.781,17.196C16.434,17.309 15.953,17.714 15.909,17.89Z" style="fill:rgb(234,88,12);fill-rule:nonzero;"/>
    <path d="M5.102,11.628C5.394,10.876 6.198,10.284 7.072,10.277L16.03,10.281L15.503,12.285L7.151,12.281C7.097,12.282 7.037,12.322 7.015,12.372L4.701,17.877C4.662,17.978 4.715,18.013 4.806,18.011L12.977,18.01L12.987,20.009L5,20C3.343,20 2,18.657 2,17L2,7C2,5.343 3.343,4 5,4L7.784,4C8.478,4 9.151,4.241 9.688,4.682L12.081,6.648C12.26,6.795 12.485,6.875 12.716,6.875L19,6.875L19,8.875L12.716,8.875C12.022,8.875 11.349,8.634 10.812,8.193L8.419,6.227C8.24,6.08 8.015,6 7.784,6L5,6C4.448,6 4,6.448 4,7L4,14.224L5.102,11.628Z" style="fill:rgb(100,115,139);"/>
</svg>
