<?xml version="1.0" encoding="UTF-8" standalone="no"?>
<!DOCTYPE svg PUBLIC "-//W3C//DTD SVG 1.1//EN" "http://www.w3.org/Graphics/SVG/1.1/DTD/svg11.dtd">
<svg width="100%" height="100%" viewBox="0 0 24 24" version="1.1" xmlns="http://www.w3.org/2000/svg" xmlns:xlink="http://www.w3.org/1999/xlink" xml:space="preserve" xmlns:serif="http://www.serif.com/" style="fill-rule:evenodd;clip-rule:evenodd;stroke-linejoin:round;stroke-miterlimit:2;">
    <path d="M18.073 11.1277C18.3794 10.9574 18.752 10.9574 19.0585 11.1277L22.8705 13.2455C23.0316 13.335 23.1315 13.5047 23.1315 13.689V17.8665C23.1315 18.2349 22.9317 18.5745 22.6096 18.7534L19.0585 20.7263C18.752 20.8965 18.3794 20.8965 18.073 20.7263L14.5219 18.7534C14.1998 18.5745 14 18.2349 14 17.8665V13.689C14 13.5047 14.0999 13.335 14.2609 13.2455L18.073 11.1277Z" stroke="#C084FC" stroke-linecap="round" stroke-linejoin="round"/>
<path d="M16.2829 12.1222L20.8486 14.6587V16.4343" stroke="#C084FC" stroke-linecap="round" stroke-linejoin="round"/>
<path d="M14 13.3905L18.5657 15.927M18.5657 15.927L23.1315 13.3905M18.5657 15.927V21" stroke="#C084FC" stroke-linejoin="round"/>
    <path d="M5.102,11.628C5.394,10.876 6.198,10.284 7.072,10.277L13.8,10.24L13.273,12.244L7.151,12.281C7.097,12.282 7.037,12.322 7.015,12.372L4.701,17.877C4.662,17.978 4.715,18.013 4.806,18.011L13.032,18.011L13.042,20.01L5,20C3.343,20 2,18.657 2,17L2,7C2,5.343 3.343,4 5,4L7.784,4C8.478,4 9.151,4.241 9.688,4.682L12.081,6.648C12.26,6.795 12.485,6.875 12.716,6.875L19,6.875C20.657,6.875 22,8.218 22,9.875L22,10.005L20.002,9.998L20,9.875C20,9.323 19.552,8.875 19,8.875L12.716,8.875C12.022,8.875 11.349,8.634 10.812,8.193L8.419,6.227C8.24,6.08 8.015,6 7.784,6L5,6C4.448,6 4,6.448 4,7L4,14.224L5.102,11.628Z" style="fill:rgb(100,115,139);"/>
</svg>
