<?xml version="1.0" encoding="UTF-8" standalone="no"?>
<!DOCTYPE svg PUBLIC "-//W3C//DTD SVG 1.1//EN" "http://www.w3.org/Graphics/SVG/1.1/DTD/svg11.dtd">
<svg width="100%" height="100%" viewBox="0 0 24 24" version="1.1" xmlns="http://www.w3.org/2000/svg" xmlns:xlink="http://www.w3.org/1999/xlink" xml:space="preserve" xmlns:serif="http://www.serif.com/" style="fill-rule:evenodd;clip-rule:evenodd;stroke-linejoin:round;stroke-miterlimit:2;">
    <path d="M15.667,14.889L21.222,14.889C22.143,14.889 22.889,15.635 22.889,16.556L22.889,19.333C22.889,20.254 22.143,21 21.222,21L15.667,21C14.746,21 14,20.254 14,19.333L14,16.556C14,15.635 14.746,14.889 15.667,14.889ZM15.667,16C15.36,16 15.111,16.249 15.111,16.556L15.111,19.333C15.111,19.64 15.36,19.889 15.667,19.889L21.222,19.889C21.529,19.889 21.778,19.64 21.778,19.333L21.778,16.556C21.778,16.249 21.529,16 21.222,16L15.667,16Z" style="fill:rgb(100,116,139);"/>
    <path d="M20.816,12.073C20.308,11.34 19.378,11.042 18.641,11.004C17.863,10.965 16.863,11.191 16.214,12.023C15.939,12.376 15.823,12.805 15.764,13.127C15.699,13.477 15.673,13.86 15.668,14.231C15.662,14.627 15.679,15.043 15.707,15.444L16.821,15.444C16.739,14.339 16.747,13.146 17.09,12.706C17.794,11.804 19.434,12.03 19.903,12.706C20.138,13.045 20.137,14.288 20.078,15.444L21.191,15.444C21.213,15.001 21.226,14.54 21.221,14.117C21.217,13.764 21.201,13.411 21.159,13.101C21.126,12.852 21.055,12.418 20.816,12.073Z" style="fill:rgb(100,116,139);"/>
    <path d="M5.102,11.628C5.394,10.876 6.198,10.284 7.072,10.277L15.285,10.281L14.758,12.285L7.151,12.281C7.097,12.282 7.037,12.322 7.015,12.372L4.701,17.877C4.662,17.978 4.715,18.013 4.806,18.011L12.988,18.014L12.998,20.013L5,20C3.343,20 2,18.657 2,17L2,7C2,5.343 3.343,4 5,4L7.784,4C8.478,4 9.151,4.241 9.688,4.682L12.081,6.648C12.26,6.795 12.485,6.875 12.716,6.875L19,6.875C20.657,6.875 22,8.218 22,9.875L22,10.005L20.002,9.998L20,9.875C20,9.323 19.552,8.875 19,8.875L12.716,8.875C12.022,8.875 11.349,8.634 10.812,8.193L8.419,6.227C8.24,6.08 8.015,6 7.784,6L5,6C4.448,6 4,6.448 4,7L4,14.224L5.102,11.628Z" style="fill:rgb(100,115,139);"/>
</svg>
