<?xml version="1.0" encoding="UTF-8" standalone="no"?>
<!DOCTYPE svg PUBLIC "-//W3C//DTD SVG 1.1//EN" "http://www.w3.org/Graphics/SVG/1.1/DTD/svg11.dtd">
<svg width="100%" height="100%" viewBox="0 0 24 24" version="1.1" xmlns="http://www.w3.org/2000/svg" xmlns:xlink="http://www.w3.org/1999/xlink" xml:space="preserve" xmlns:serif="http://www.serif.com/" style="fill-rule:evenodd;clip-rule:evenodd;stroke-linejoin:round;stroke-miterlimit:2;">
    <path d="M23.102,12.11L22.019,13.193C23.125,14.117 23.83,15.507 23.83,17.057L23.83,18.026C23.83,18.328 23.586,18.572 23.284,18.572L14.403,18.572C14.185,18.572 13.759,18.572 13.759,18.026L13.759,17.057C13.759,15.507 14.463,14.117 15.57,13.193L14.487,12.11C14.274,11.897 14.274,11.552 14.487,11.339C14.7,11.126 15.046,11.126 15.259,11.339L16.497,12.577C17.186,12.222 17.967,12.021 18.794,12.021C19.621,12.021 20.403,12.222 21.092,12.577L22.33,11.339C22.543,11.126 22.888,11.126 23.102,11.339C23.315,11.552 23.315,11.897 23.102,12.11ZM14.85,17.057L14.85,17.481L22.739,17.481L22.739,17.057C22.739,14.882 20.969,13.113 18.794,13.113C16.619,13.113 14.85,14.882 14.85,17.057ZM17.34,15.944C17.596,15.944 17.803,15.737 17.803,15.48C17.803,15.224 17.596,15.016 17.34,15.016C17.083,15.016 16.876,15.224 16.876,15.48C16.876,15.737 17.083,15.944 17.34,15.944ZM20.786,15.406C20.786,15.662 20.578,15.87 20.322,15.87C20.066,15.87 19.858,15.662 19.858,15.406C19.858,15.15 20.066,14.942 20.322,14.942C20.578,14.942 20.786,15.15 20.786,15.406Z" style="fill:rgb(74,222,128);"/>
    <path d="M22.019,13.193L21.913,13.087C21.884,13.117 21.868,13.158 21.869,13.2C21.871,13.242 21.891,13.281 21.923,13.308L22.019,13.193ZM23.102,12.11L22.996,12.004L23.102,12.11ZM15.57,13.193L15.666,13.308C15.698,13.281 15.717,13.242 15.719,13.2C15.721,13.158 15.705,13.117 15.676,13.087L15.57,13.193ZM14.487,12.11L14.381,12.217L14.487,12.11ZM14.487,11.339L14.381,11.233L14.381,11.233L14.487,11.339ZM15.259,11.339L15.365,11.233L15.259,11.339ZM16.497,12.577L16.391,12.683C16.437,12.729 16.508,12.74 16.566,12.71L16.497,12.577ZM21.092,12.577L21.023,12.71C21.081,12.74 21.152,12.729 21.198,12.683L21.092,12.577ZM22.33,11.339L22.224,11.233L22.33,11.339ZM23.102,11.339L23.208,11.233L23.208,11.233L23.102,11.339ZM14.85,17.481L14.7,17.481C14.7,17.563 14.767,17.631 14.85,17.631L14.85,17.481ZM22.739,17.481L22.739,17.631C22.822,17.631 22.889,17.563 22.889,17.481L22.739,17.481ZM22.125,13.299L23.208,12.217L22.996,12.004L21.913,13.087L22.125,13.299ZM23.98,17.057C23.98,15.46 23.254,14.029 22.116,13.078L21.923,13.308C22.997,14.205 23.68,15.553 23.68,17.057L23.98,17.057ZM23.98,18.026L23.98,17.057L23.68,17.057L23.68,18.026L23.98,18.026ZM23.284,18.722C23.669,18.722 23.98,18.411 23.98,18.026L23.68,18.026C23.68,18.245 23.503,18.422 23.284,18.422L23.284,18.722ZM14.403,18.722L23.284,18.722L23.284,18.422L14.403,18.422L14.403,18.722ZM13.609,18.026C13.609,18.182 13.639,18.311 13.698,18.416C13.758,18.521 13.841,18.592 13.931,18.638C14.102,18.725 14.3,18.722 14.403,18.722L14.403,18.422C14.289,18.422 14.164,18.42 14.067,18.37C14.023,18.348 13.986,18.316 13.959,18.268C13.931,18.219 13.909,18.143 13.909,18.026L13.609,18.026ZM13.609,17.057L13.609,18.026L13.909,18.026L13.909,17.057L13.609,17.057ZM15.473,13.078C14.335,14.029 13.609,15.46 13.609,17.057L13.909,17.057C13.909,15.553 14.592,14.205 15.666,13.308L15.473,13.078ZM14.381,12.217L15.464,13.299L15.676,13.087L14.593,12.004L14.381,12.217ZM14.381,11.233C14.11,11.504 14.11,11.945 14.381,12.217L14.593,12.004C14.439,11.85 14.439,11.599 14.593,11.445L14.381,11.233ZM15.365,11.233C15.093,10.961 14.653,10.961 14.381,11.233L14.593,11.445C14.748,11.29 14.998,11.29 15.153,11.445L15.365,11.233ZM16.603,12.471L15.365,11.233L15.153,11.445L16.391,12.683L16.603,12.471ZM18.794,11.871C17.943,11.871 17.138,12.078 16.428,12.443L16.566,12.71C17.234,12.366 17.992,12.171 18.794,12.171L18.794,11.871ZM21.16,12.443C20.45,12.078 19.646,11.871 18.794,11.871L18.794,12.171C19.597,12.171 20.355,12.366 21.023,12.71L21.16,12.443ZM22.224,11.233L20.986,12.471L21.198,12.683L22.436,11.445L22.224,11.233ZM23.208,11.233C22.936,10.961 22.496,10.961 22.224,11.233L22.436,11.445C22.59,11.29 22.841,11.29 22.996,11.445L23.208,11.233ZM23.208,12.217C23.479,11.945 23.479,11.504 23.208,11.233L22.995,11.445C23.15,11.599 23.15,11.85 22.996,12.004L23.208,12.217ZM15,17.481L15,17.057L14.7,17.057L14.7,17.481L15,17.481ZM22.739,17.331L14.85,17.331L14.85,17.631L22.739,17.631L22.739,17.331ZM22.589,17.057L22.589,17.481L22.889,17.481L22.889,17.057L22.589,17.057ZM18.794,13.263C20.886,13.263 22.589,14.965 22.589,17.057L22.889,17.057C22.889,14.799 21.052,12.963 18.794,12.963L18.794,13.263ZM15,17.057C15,14.965 16.702,13.263 18.794,13.263L18.794,12.963C16.537,12.963 14.7,14.799 14.7,17.057L15,17.057ZM17.653,15.48C17.653,15.654 17.513,15.794 17.34,15.794L17.34,16.094C17.679,16.094 17.953,15.819 17.953,15.48L17.653,15.48ZM17.34,15.166C17.513,15.166 17.653,15.307 17.653,15.48L17.953,15.48C17.953,15.141 17.679,14.866 17.34,14.866L17.34,15.166ZM17.026,15.48C17.026,15.307 17.166,15.166 17.34,15.166L17.34,14.866C17,14.866 16.726,15.141 16.726,15.48L17.026,15.48ZM17.34,15.794C17.166,15.794 17.026,15.654 17.026,15.48L16.726,15.48C16.726,15.819 17,16.094 17.34,16.094L17.34,15.794ZM20.322,16.02C20.661,16.02 20.936,15.745 20.936,15.406L20.636,15.406C20.636,15.579 20.496,15.72 20.322,15.72L20.322,16.02ZM19.708,15.406C19.708,15.745 19.983,16.02 20.322,16.02L20.322,15.72C20.149,15.72 20.008,15.579 20.008,15.406L19.708,15.406ZM20.322,14.792C19.983,14.792 19.708,15.067 19.708,15.406L20.008,15.406C20.008,15.233 20.149,15.092 20.322,15.092L20.322,14.792ZM20.936,15.406C20.936,15.067 20.661,14.792 20.322,14.792L20.322,15.092C20.496,15.092 20.636,15.233 20.636,15.406L20.936,15.406Z" style="fill:rgb(74,222,128);fill-rule:nonzero;"/>
    <path d="M5.102,11.628C5.394,10.876 6.198,10.284 7.072,10.277L13.645,10.28L13.118,12.284L7.151,12.281C7.097,12.282 7.037,12.322 7.015,12.372L4.701,17.877C4.662,17.978 4.715,18.013 4.806,18.011L12.951,18.015L12.961,20.014L5,20C3.343,20 2,18.657 2,17L2,7C2,5.343 3.343,4 5,4L7.784,4C8.478,4 9.151,4.241 9.688,4.682L12.081,6.648C12.26,6.795 12.485,6.875 12.716,6.875L19,6.875C20.657,6.875 22,8.218 22,9.875L22,10.005L20.002,9.998L20,9.875C20,9.323 19.552,8.875 19,8.875L12.716,8.875C12.022,8.875 11.349,8.634 10.812,8.193L8.419,6.227C8.24,6.08 8.015,6 7.784,6L5,6C4.448,6 4,6.448 4,7L4,14.224L5.102,11.628Z" style="fill:rgb(100,115,139);"/>
</svg>
