<?xml version="1.0" encoding="UTF-8" standalone="no"?>
<!DOCTYPE svg PUBLIC "-//W3C//DTD SVG 1.1//EN" "http://www.w3.org/Graphics/SVG/1.1/DTD/svg11.dtd">
<svg width="100%" height="100%" viewBox="0 0 24 24" version="1.1" xmlns="http://www.w3.org/2000/svg" xmlns:xlink="http://www.w3.org/1999/xlink" xml:space="preserve" xmlns:serif="http://www.serif.com/" style="fill-rule:evenodd;clip-rule:evenodd;stroke-linejoin:round;stroke-miterlimit:2;">
    <g clip-path="url(#clip0_4_143)">
<path fill-rule="evenodd" clip-rule="evenodd" d="M23.6769 16.6434V17.2947C23.6769 18.481 22.7396 19.7058 21.5862 19.7058H15.4159C14.2627 19.7058 13.3254 18.481 13.3254 17.2947V16.6434H23.6769Z" fill="#9D5125"/>
<path fill-rule="evenodd" clip-rule="evenodd" d="M17.3093 10.2942C18.3483 10.2918 19.2921 11.1352 19.7216 12.4501C20.1249 12.0672 20.6458 12.0186 21.0822 12.3233C21.5185 12.6281 21.8014 13.238 21.821 13.916C22.864 14.0364 23.6765 15.4348 23.6765 16.5456V16.7865C23.6765 17.9808 22.7391 19.1915 21.5816 19.1915H15.4156C14.2609 19.1915 13.3235 17.9808 13.3235 16.7864V16.5475C13.3235 15.6267 13.8804 14.3609 14.6633 14.0465V13.9425C14.666 12.971 14.9464 12.041 15.4425 11.3569C15.9387 10.6727 16.6102 10.2904 17.3093 10.2942Z" fill="#F58535"/>
<path fill-rule="evenodd" clip-rule="evenodd" d="M15.918 14.5631L15.226 17.9216H15.6315L15.7871 17.105H16.4997L16.6466 17.9216H17.052L16.4158 14.5631H15.918ZM15.8562 16.67L16.15 15.0103L16.4292 16.666L15.8562 16.67ZM18.7931 17.1866H18.7873L18.4596 14.5631H18.0512L17.7309 17.1722H17.7235L17.4047 14.5631H17.0124L17.481 17.9216H17.932L18.242 15.392H18.2493L18.5622 17.9216H19.0118L19.4952 14.5631H19.1103L18.7931 17.1866ZM20.7456 16.0882L20.4826 15.9555C20.2254 15.8269 20.1167 15.6739 20.1167 15.3859C20.1109 15.3235 20.1151 15.2602 20.1291 15.2002C20.1432 15.1401 20.1666 15.0847 20.198 15.0375C20.261 14.944 20.3508 14.8943 20.4429 14.902C20.5382 14.8842 20.634 14.93 20.7012 15.0258C20.7683 15.1217 20.7989 15.2558 20.7836 15.3879V15.4593H21.1729V15.3838C21.1729 15.0368 21.1082 14.4998 20.4853 14.4998C20.0284 14.4998 19.7286 14.8386 19.7286 15.4513C19.7286 15.9311 19.8755 16.1842 20.2355 16.3721L20.5015 16.5007C20.7115 16.5408 20.8638 16.7988 20.8512 17.0928C20.8539 17.2278 20.8153 17.3582 20.745 17.4517C20.6748 17.5451 20.5794 17.5927 20.4823 17.5829C20.2134 17.5829 20.0841 17.3788 20.0841 16.9705V16.8847H19.6963V16.9643C19.6963 17.4339 19.8329 17.985 20.4308 17.985C20.9216 17.985 21.2359 17.689 21.2359 16.9744C21.2403 16.5151 21.089 16.2557 20.7452 16.0883L20.7456 16.0882Z" fill="white"/>
</g>
<defs>
<clipPath id="clip0_4_143">
<rect width="11" height="10" fill="white" transform="translate(13 10)"/>
</clipPath>
</defs>
    <path d="M5.102,11.628C5.394,10.876 6.198,10.284 7.072,10.277L13.8,10.24L13.273,12.244L7.151,12.281C7.097,12.282 7.037,12.322 7.015,12.372L4.701,17.877C4.662,17.978 4.715,18.013 4.806,18.011L13.032,18.011L13.042,20.01L5,20C3.343,20 2,18.657 2,17L2,7C2,5.343 3.343,4 5,4L7.784,4C8.478,4 9.151,4.241 9.688,4.682L12.081,6.648C12.26,6.795 12.485,6.875 12.716,6.875L19,6.875C20.657,6.875 22,8.218 22,9.875L22,10.005L20.002,9.998L20,9.875C20,9.323 19.552,8.875 19,8.875L12.716,8.875C12.022,8.875 11.349,8.634 10.812,8.193L8.419,6.227C8.24,6.08 8.015,6 7.784,6L5,6C4.448,6 4,6.448 4,7L4,14.224L5.102,11.628Z" style="fill:rgb(100,115,139);"/>
</svg>
