<?xml version="1.0" encoding="UTF-8" standalone="no"?>
<!DOCTYPE svg PUBLIC "-//W3C//DTD SVG 1.1//EN" "http://www.w3.org/Graphics/SVG/1.1/DTD/svg11.dtd">
<svg width="100%" height="100%" viewBox="0 0 24 24" version="1.1" xmlns="http://www.w3.org/2000/svg" xmlns:xlink="http://www.w3.org/1999/xlink" xml:space="preserve" xmlns:serif="http://www.serif.com/" style="fill-rule:evenodd;clip-rule:evenodd;stroke-linejoin:round;stroke-miterlimit:2;">
    <path d="M5,4C3.343,4 2,5.343 2,7L2,17C2,18.657 3.343,20 5,20L13,20L13,18L5,18C4.448,18 4,17.552 4,17L4,7C4,6.448 4.448,6 5,6L7.784,6C8.015,6 8.24,6.08 8.419,6.227L10.812,8.193C11.349,8.634 12.022,8.875 12.716,8.875L19,8.875C19.552,8.875 20,9.323 20,9.875L20,10L22,10L22,9.875C22,8.218 20.657,6.875 19,6.875L12.716,6.875C12.485,6.875 12.26,6.795 12.081,6.648L9.688,4.682C9.151,4.241 8.478,4 7.784,4L5,4Z" style="fill:rgb(100,116,139);"/>
    <path d="M19,14.889C18.386,14.889 17.889,15.386 17.889,16C17.889,16.614 18.386,17.111 19,17.111C19.614,17.111 20.111,16.614 20.111,16C20.111,15.386 19.614,14.889 19,14.889ZM16.778,16C16.778,14.773 17.773,13.778 19,13.778C20.227,13.778 21.222,14.773 21.222,16C21.222,17.227 20.227,18.222 19,18.222C17.773,18.222 16.778,17.227 16.778,16Z" style="fill:rgb(192,132,252);"/>
    <path d="M19,12.111C16.852,12.111 15.111,13.852 15.111,16C15.111,18.148 16.852,19.889 19,19.889C21.148,19.889 22.889,18.148 22.889,16C22.889,13.852 21.148,12.111 19,12.111ZM14,16C14,13.239 16.239,11 19,11C21.761,11 24,13.239 24,16C24,18.761 21.761,21 19,21C16.239,21 14,18.761 14,16Z" style="fill:rgb(192,132,252);"/>
    <path d="M5.102,11.628C5.394,10.876 6.198,10.284 7.072,10.277L14.97,10.28L14.443,12.284L7.151,12.281C7.097,12.282 7.037,12.322 7.015,12.372L4.701,17.877C4.662,17.978 4.715,18.013 4.806,18.011L12.988,18.01L12.998,20.009L5,20C3.343,20 2,18.657 2,17L2,7C2,5.343 3.343,4 5,4L7.784,4C8.478,4 9.151,4.241 9.688,4.682L12.081,6.648C12.26,6.795 12.485,6.875 12.716,6.875L19,6.875C20.657,6.875 22,8.218 22,9.875L22,10.005L20.002,9.998L20,9.875C20,9.323 19.552,8.875 19,8.875L12.716,8.875C12.022,8.875 11.349,8.634 10.812,8.193L8.419,6.227C8.24,6.08 8.015,6 7.784,6L5,6C4.448,6 4,6.448 4,7L4,14.224L5.102,11.628Z" style="fill:rgb(100,115,139);"/>
</svg>
