<?xml version="1.0" encoding="UTF-8" standalone="no"?>
<!DOCTYPE svg PUBLIC "-//W3C//DTD SVG 1.1//EN" "http://www.w3.org/Graphics/SVG/1.1/DTD/svg11.dtd">
<svg width="100%" height="100%" viewBox="0 0 24 24" version="1.1" xmlns="http://www.w3.org/2000/svg" xmlns:xlink="http://www.w3.org/1999/xlink" xml:space="preserve" xmlns:serif="http://www.serif.com/" style="fill-rule:evenodd;clip-rule:evenodd;stroke-linejoin:round;stroke-miterlimit:2;">
    <path d="M23.892,13.937C23.862,13.912 23.585,13.689 23.001,13.689C22.846,13.69 22.692,13.704 22.54,13.731C22.427,12.905 21.786,12.502 21.757,12.484L21.6,12.388L21.497,12.547C21.367,12.76 21.273,12.995 21.218,13.241C21.113,13.713 21.177,14.156 21.401,14.535C21.13,14.696 20.694,14.735 20.606,14.739L13.394,14.739C13.205,14.739 13.053,14.901 13.052,15.102C13.043,15.775 13.15,16.444 13.367,17.076C13.616,17.77 13.986,18.281 14.466,18.594C15.005,18.945 15.881,19.146 16.873,19.146C17.321,19.148 17.769,19.105 18.21,19.017C18.822,18.897 19.412,18.669 19.954,18.342C20.401,18.067 20.803,17.716 21.144,17.304C21.716,16.615 22.056,15.848 22.309,15.166L22.41,15.166C23.036,15.166 23.421,14.9 23.633,14.676C23.774,14.534 23.884,14.36 23.955,14.167L24,14.028L23.892,13.937Z" style="fill:rgb(96,165,250);fill-rule:nonzero;"/>
    <path d="M14.062,14.514L15.029,14.514C15.075,14.514 15.113,14.474 15.113,14.424L15.113,13.507C15.113,13.457 15.076,13.417 15.029,13.417L14.062,13.417C14.016,13.417 13.978,13.457 13.978,13.507L13.978,14.424C13.978,14.474 14.016,14.514 14.062,14.514Z" style="fill:rgb(96,165,250);fill-rule:nonzero;"/>
    <path d="M15.394,14.514L16.361,14.514C16.407,14.514 16.445,14.474 16.445,14.424L16.445,13.507C16.445,13.457 16.408,13.417 16.361,13.417L15.394,13.417C15.347,13.417 15.309,13.457 15.309,13.507L15.309,14.424C15.31,14.474 15.348,14.514 15.394,14.514" style="fill:rgb(96,165,250);fill-rule:nonzero;"/>
    <path d="M16.746,14.514L17.713,14.514C17.759,14.514 17.797,14.474 17.797,14.424L17.797,13.507C17.797,13.457 17.76,13.417 17.713,13.417L16.746,13.417C16.7,13.417 16.662,13.457 16.662,13.507L16.662,14.424C16.662,14.474 16.7,14.514 16.746,14.514Z" style="fill:rgb(96,165,250);fill-rule:nonzero;"/>
    <path d="M18.082,14.514L19.049,14.514C19.096,14.514 19.133,14.474 19.134,14.424L19.134,13.507C19.134,13.457 19.096,13.417 19.049,13.417L18.082,13.417C18.036,13.417 17.998,13.457 17.998,13.507L17.998,14.424C17.998,14.474 18.036,14.514 18.082,14.514Z" style="fill:rgb(96,165,250);fill-rule:nonzero;"/>
    <path d="M15.394,13.195L16.361,13.195C16.407,13.194 16.445,13.154 16.445,13.104L16.445,12.187C16.445,12.138 16.407,12.098 16.361,12.098L15.394,12.098C15.348,12.098 15.31,12.138 15.309,12.187L15.309,13.104C15.31,13.154 15.347,13.194 15.394,13.195Z" style="fill:rgb(96,165,250);fill-rule:nonzero;"/>
    <path d="M16.746,13.195L17.713,13.195C17.759,13.194 17.797,13.154 17.797,13.104L17.797,12.187C17.797,12.138 17.759,12.098 17.713,12.098L16.746,12.098C16.7,12.098 16.662,12.138 16.662,12.187L16.662,13.104C16.662,13.154 16.7,13.194 16.746,13.195Z" style="fill:rgb(96,165,250);fill-rule:nonzero;"/>
    <path d="M18.082,13.195L19.049,13.195C19.096,13.194 19.133,13.154 19.134,13.104L19.134,12.187C19.133,12.138 19.096,12.098 19.049,12.098L18.082,12.098C18.036,12.098 17.998,12.138 17.998,12.187L17.998,13.104C17.998,13.154 18.036,13.194 18.082,13.195Z" style="fill:rgb(96,165,250);fill-rule:nonzero;"/>
    <path d="M18.082,11.875L19.049,11.875C19.096,11.875 19.133,11.835 19.134,11.785L19.134,10.868C19.133,10.818 19.096,10.778 19.049,10.778L18.082,10.778C18.036,10.778 17.998,10.818 17.998,10.868L17.998,11.785C17.998,11.835 18.036,11.875 18.082,11.875Z" style="fill:rgb(96,165,250);fill-rule:nonzero;"/>
    <path d="M19.43,14.514L20.397,14.514C20.443,14.514 20.481,14.474 20.482,14.424L20.482,13.507C20.482,13.457 20.444,13.417 20.397,13.417L19.43,13.417C19.384,13.417 19.346,13.457 19.346,13.507L19.346,14.424C19.346,14.474 19.384,14.514 19.43,14.514" style="fill:rgb(96,165,250);fill-rule:nonzero;"/>
    <path d="M5.102,11.628C5.394,10.876 6.198,10.284 7.072,10.277L14.912,10.28L14.385,12.284L7.151,12.281C7.097,12.282 7.037,12.322 7.015,12.372L4.701,17.877C4.662,17.978 4.715,18.013 4.806,18.011L12.951,18.015L12.961,20.014L5,20C3.343,20 2,18.657 2,17L2,7C2,5.343 3.343,4 5,4L7.784,4C8.478,4 9.151,4.241 9.688,4.682L12.081,6.648C12.26,6.795 12.485,6.875 12.716,6.875L19,6.875C20.657,6.875 22,8.218 22,9.875L22,10.005L20.002,9.998L20,9.875C20,9.323 19.552,8.875 19,8.875L12.716,8.875C12.022,8.875 11.349,8.634 10.812,8.193L8.419,6.227C8.24,6.08 8.015,6 7.784,6L5,6C4.448,6 4,6.448 4,7L4,14.224L5.102,11.628Z" style="fill:rgb(100,115,139);"/>
</svg>
