<?xml version="1.0" encoding="UTF-8" standalone="no"?>
<!DOCTYPE svg PUBLIC "-//W3C//DTD SVG 1.1//EN" "http://www.w3.org/Graphics/SVG/1.1/DTD/svg11.dtd">
<svg width="100%" height="100%" viewBox="0 0 24 24" version="1.1" xmlns="http://www.w3.org/2000/svg" xmlns:xlink="http://www.w3.org/1999/xlink" xml:space="preserve" xmlns:serif="http://www.serif.com/" style="fill-rule:evenodd;clip-rule:evenodd;stroke-linejoin:round;stroke-miterlimit:2;">
    <path d="M18.643,12C18.051,12 17.571,12.48 17.571,13.071L17.571,13.714L15.857,13.714C15.384,13.714 15,14.098 15,14.571L15,15.857C15,16.094 15.192,16.286 15.429,16.286L15.582,16.286C16.142,16.286 16.652,16.689 16.708,17.247C16.773,17.888 16.271,18.429 15.643,18.429L15.429,18.429C15.192,18.429 15,18.621 15,18.857L15,20.143C15,20.616 15.384,21 15.857,21L17.143,21C17.379,21 17.571,20.808 17.571,20.571L17.571,20.418C17.571,19.858 17.975,19.348 18.532,19.292C19.174,19.227 19.714,19.729 19.714,20.357L19.714,20.571C19.714,20.808 19.906,21 20.143,21L21.429,21C21.902,21 22.286,20.616 22.286,20.143L22.286,18.429L22.929,18.429C23.52,18.429 24,17.949 24,17.357C24,16.765 23.52,16.286 22.929,16.286L22.286,16.286L22.286,14.571C22.286,14.098 21.902,13.714 21.429,13.714L19.714,13.714L19.714,13.071C19.714,12.48 19.235,12 18.643,12Z" style="fill:rgb(20,184,166);fill-rule:nonzero;"/>
    <path d="M5.102,11.628C5.394,10.876 6.198,10.284 7.072,10.277L16.03,10.281L15.503,12.285L7.151,12.281C7.097,12.282 7.037,12.322 7.015,12.372L4.701,17.877C4.662,17.978 4.715,18.013 4.806,18.011L12.915,18.01L12.925,20.009L5,20C3.343,20 2,18.657 2,17L2,7C2,5.343 3.343,4 5,4L7.784,4C8.478,4 9.151,4.241 9.688,4.682L12.081,6.648C12.26,6.795 12.485,6.875 12.716,6.875L19,6.875C20.657,6.875 22,8.218 22,9.875L22,10.005L20.002,9.998L20,9.875C20,9.323 19.552,8.875 19,8.875L12.716,8.875C12.022,8.875 11.349,8.634 10.812,8.193L8.419,6.227C8.24,6.08 8.015,6 7.784,6L5,6C4.448,6 4,6.448 4,7L4,14.224L5.102,11.628Z" style="fill:rgb(100,115,139);"/>
</svg>
