<?xml version="1.0" encoding="UTF-8" standalone="no"?>
<!DOCTYPE svg PUBLIC "-//W3C//DTD SVG 1.1//EN" "http://www.w3.org/Graphics/SVG/1.1/DTD/svg11.dtd">
<svg width="100%" height="100%" viewBox="0 0 24 24" version="1.1" xmlns="http://www.w3.org/2000/svg" xmlns:xlink="http://www.w3.org/1999/xlink" xml:space="preserve" xmlns:serif="http://www.serif.com/" style="fill-rule:evenodd;clip-rule:evenodd;stroke-linecap:round;stroke-linejoin:round;">
    <path d="M16.453,12.652L15.539,13L14.226,14.422L13.481,16.311L13.714,17.272C13.939,17.955 14.314,18.43 14.984,18.937L15.468,18.472C15.468,18.472 16.156,19.859 17.4,20.084C17.4,20.084 19.247,20.433 20.206,19.927C20.475,19.785 20.659,19.597 20.799,19.46C21.171,19.094 21.345,18.826 21.616,18.517L21.917,18.842L22.247,18.832L23.15,17.531L23.511,16.619L23.507,15.853L23.116,14.843L22.246,13.509C22.246,13.509 21.771,12.743 20.776,12.804C20.776,12.804 19.607,11.934 18.647,12.069C17.687,12.204 17.997,11.947 16.453,12.652Z" style="fill:rgb(244,170,65);fill-rule:nonzero;"/>
    <path d="M18.527,18.334L17.972,18.768L17.522,18.768L17.617,19.468L17.692,20.011L17.837,20.433L18.347,20.703L19.172,20.598L19.327,20.201L19.453,19.449L19.592,18.798L19.232,18.843L18.527,18.334Z" style="fill:rgb(234,90,71);fill-rule:nonzero;"/>
    <path d="M17.897,16.568L17.612,17.242L18.002,17.467L18.227,17.557L19.007,17.587L19.532,17.182L19.217,16.598L17.897,16.568Z" style="fill:rgb(63,63,63);fill-rule:nonzero;"/>
    <path d="M17.359,15.342C17.359,15.342 17.034,15.566 16.864,15.462C16.694,15.359 16.64,15.137 16.744,14.968C16.847,14.798 17.069,14.744 17.238,14.848C17.408,14.951 17.359,15.342 17.359,15.342Z" style="fill-rule:nonzero;"/>
    <path d="M18.007,16.583L19.113,16.583C19.185,16.583 19.25,16.626 19.278,16.693L19.487,17.183L19.095,17.389C18.984,17.447 18.849,17.378 18.832,17.254" style="fill:none;fill-rule:nonzero;stroke:black;stroke-width:0.36px;"/>
    <path d="M18.304,17.259C18.284,17.372 18.164,17.437 18.059,17.394L17.642,17.222L17.838,16.7C17.865,16.63 17.932,16.583 18.007,16.583" style="fill:none;fill-rule:nonzero;stroke:black;stroke-width:0.36px;"/>
    <path d="M17.526,18.926C17.526,18.926 17.397,20.509 18.067,20.714C18.543,20.861 18.994,20.81 19.158,20.67C19.315,20.535 19.632,19.864 19.487,18.926" style="fill:none;fill-rule:nonzero;stroke:black;stroke-width:0.36px;"/>
    <path d="M20.014,15.342C20.014,15.342 20.339,15.566 20.509,15.462C20.678,15.359 20.732,15.137 20.629,14.968C20.525,14.798 20.304,14.744 20.134,14.848C19.965,14.951 20.014,15.342 20.014,15.342Z" style="fill-rule:nonzero;"/>
    <path d="M16.66,17.633C16.575,18.281 17.062,18.668 17.431,18.864C17.647,18.979 17.908,18.957 18.1,18.807L18.565,18.443L19.029,18.807C19.221,18.957 19.483,18.979 19.698,18.864C20.067,18.668 20.554,18.281 20.469,17.633" style="fill:none;fill-rule:nonzero;stroke:black;stroke-width:0.36px;"/>
    <path d="M15.639,15.027C15.222,15.955 15.548,17.371 15.661,17.794C15.682,17.876 15.674,17.962 15.638,18.039L15.28,18.794C15.168,19.03 14.849,19.073 14.681,18.873C14.106,18.192 13.141,16.823 13.502,15.87C14.773,12.522 16.358,12.606 16.358,12.606C16.87,12.258 18.716,11.357 20.822,12.763C20.822,12.763 22.376,12.454 23.51,15.811C23.835,16.771 22.893,18.126 22.332,18.806C22.164,19.009 21.843,18.967 21.73,18.729L21.375,17.98C21.338,17.903 21.33,17.817 21.352,17.734C21.465,17.311 21.79,15.896 21.373,14.967" style="fill:none;fill-rule:nonzero;stroke:black;stroke-width:0.36px;"/>
    <path d="M21.52,18.285C21.52,18.285 20.966,19.494 20.115,19.773" style="fill:none;fill-rule:nonzero;stroke:black;stroke-width:0.36px;"/>
    <path d="M15.547,18.376C15.547,18.376 16.101,19.471 16.951,19.749" style="fill:none;fill-rule:nonzero;stroke:black;stroke-width:0.36px;"/>
    <path d="M18.565,18.443L18.565,17.897" style="fill:none;fill-rule:nonzero;stroke:black;stroke-width:0.36px;"/>
    <path d="M5.102,11.628C5.394,10.876 6.198,10.284 7.072,10.277L16.03,10.281L15.503,12.285L7.151,12.281C7.097,12.282 7.037,12.322 7.015,12.372L4.701,17.877C4.662,17.978 4.715,18.013 4.806,18.011L12.951,18.015L12.961,20.014L5,20C3.343,20 2,18.657 2,17L2,7C2,5.343 3.343,4 5,4L7.784,4C8.478,4 9.151,4.241 9.688,4.682L12.081,6.648C12.26,6.795 12.485,6.875 12.716,6.875L19,6.875C20.657,6.875 22,8.218 22,9.875L22,10.005L20.002,9.998L20,9.875C20,9.323 19.552,8.875 19,8.875L12.716,8.875C12.022,8.875 11.349,8.634 10.812,8.193L8.419,6.227C8.24,6.08 8.015,6 7.784,6L5,6C4.448,6 4,6.448 4,7L4,14.224L5.102,11.628Z" style="fill:rgb(100,115,139);"/>
</svg>
