<?xml version="1.0" encoding="UTF-8" standalone="no"?>
<!DOCTYPE svg PUBLIC "-//W3C//DTD SVG 1.1//EN" "http://www.w3.org/Graphics/SVG/1.1/DTD/svg11.dtd">
<svg width="100%" height="100%" viewBox="0 0 24 24" version="1.1" xmlns="http://www.w3.org/2000/svg" xmlns:xlink="http://www.w3.org/1999/xlink" xml:space="preserve" xmlns:serif="http://www.serif.com/" style="fill-rule:evenodd;clip-rule:evenodd;stroke-linejoin:round;stroke-miterlimit:2;">
    <path d="M19.262,20.069C19.026,20.345 18.546,20.195 18.541,19.843L18.458,14.699L22.192,14.699C22.869,14.699 23.246,15.423 22.825,15.912L19.262,20.069Z" style="fill:url(#_Linear1);fill-rule:nonzero;"/>
    <path d="M19.262,20.069C19.026,20.345 18.546,20.195 18.541,19.843L18.458,14.699L22.192,14.699C22.869,14.699 23.246,15.423 22.825,15.912L19.262,20.069Z" style="fill:url(#_Linear2);fill-rule:nonzero;"/>
    <path d="M17.743,11.794C17.98,11.519 18.458,11.669 18.464,12.021L18.5,17.164L14.812,17.164C14.135,17.164 13.758,16.44 14.179,15.951L17.743,11.794Z" style="fill:rgb(62,207,142);fill-rule:nonzero;"/>
    <path d="M5.102,11.628C5.394,10.876 6.198,10.284 7.072,10.277L16.03,10.281L15.503,12.285L7.151,12.281C7.097,12.282 7.037,12.322 7.015,12.372L4.701,17.877C4.662,17.978 4.715,18.013 4.806,18.011L12.96,18.01L12.97,20.009L5,20C3.343,20 2,18.657 2,17L2,7C2,5.343 3.343,4 5,4L7.784,4C8.478,4 9.151,4.241 9.688,4.682L12.081,6.648C12.26,6.795 12.485,6.875 12.716,6.875L19,6.875C20.657,6.875 22,8.218 22,9.875L22,10.005L20.002,9.998L20,9.875C20,9.323 19.552,8.875 19,8.875L12.716,8.875C12.022,8.875 11.349,8.634 10.812,8.193L8.419,6.227C8.24,6.08 8.015,6 7.784,6L5,6C4.448,6 4,6.448 4,7L4,14.224L5.102,11.628Z" style="fill:rgb(100,115,139);"/>
    <defs>
        <linearGradient id="_Linear1" x1="0" y1="0" x2="1" y2="0" gradientUnits="userSpaceOnUse" gradientTransform="matrix(3.2386,1.4668,-1.4668,3.2386,18.4579,15.8396)"><stop offset="0" style="stop-color:rgb(36,147,97);stop-opacity:1"/><stop offset="1" style="stop-color:rgb(62,207,142);stop-opacity:1"/></linearGradient>
        <linearGradient id="_Linear2" x1="0" y1="0" x2="1" y2="0" gradientUnits="userSpaceOnUse" gradientTransform="matrix(1.34,2.7242,-2.7242,1.34,16.9863,13.9738)"><stop offset="0" style="stop-color:black;stop-opacity:0.2"/><stop offset="1" style="stop-color:black;stop-opacity:0"/></linearGradient>
    </defs>
</svg>
