<?xml version="1.0" encoding="UTF-8" standalone="no"?>
<!DOCTYPE svg PUBLIC "-//W3C//DTD SVG 1.1//EN" "http://www.w3.org/Graphics/SVG/1.1/DTD/svg11.dtd">
<svg width="100%" height="100%" viewBox="0 0 24 24" version="1.1" xmlns="http://www.w3.org/2000/svg" xmlns:xlink="http://www.w3.org/1999/xlink" xml:space="preserve" xmlns:serif="http://www.serif.com/" style="fill-rule:evenodd;clip-rule:evenodd;stroke-linejoin:round;stroke-miterlimit:2;">
    <path d="M5.102,11.628C5.394,10.876 6.198,10.284 7.072,10.277L21.728,10.284C23.247,10.292 24.155,11.961 23.792,12.957L21.307,18.903C20.989,19.612 20.322,20.021 19.011,20.016L5,20C3.343,20 2,18.657 2,17L2,7C2,5.343 3.343,4 5,4L7.784,4C8.478,4 9.151,4.241 9.688,4.682L12.081,6.648C12.26,6.795 12.485,6.875 12.716,6.875L19,6.875C20.657,6.875 22,8.218 22,9.875L20,9.875C20,9.323 19.552,8.875 19,8.875L12.716,8.875C12.022,8.875 11.349,8.634 10.812,8.193L8.419,6.227C8.24,6.08 8.015,6 7.784,6L5,6C4.448,6 4,6.448 4,7L4,14.224L5.102,11.628ZM7.151,12.281C7.091,12.284 7.04,12.31 7.015,12.372L4.701,17.877C4.681,17.928 4.751,18.011 4.806,18.011L19.358,18.012C19.407,18.014 19.458,17.976 19.478,17.932L21.799,12.418C21.823,12.358 21.764,12.288 21.7,12.288L7.151,12.281Z" style="fill:rgb(248,113,113);"/>
</svg>
