<?xml version="1.0" encoding="UTF-8" standalone="no"?>
<!DOCTYPE svg PUBLIC "-//W3C//DTD SVG 1.1//EN" "http://www.w3.org/Graphics/SVG/1.1/DTD/svg11.dtd">
<svg width="100%" height="100%" viewBox="0 0 24 24" version="1.1" xmlns="http://www.w3.org/2000/svg" xmlns:xlink="http://www.w3.org/1999/xlink" xml:space="preserve" xmlns:serif="http://www.serif.com/" style="fill-rule:evenodd;clip-rule:evenodd;stroke-linejoin:round;stroke-miterlimit:2;">
    <path d="M23.854,11.854C23.945,11.759 23.995,11.633 23.994,11.502C23.993,11.371 23.94,11.245 23.847,11.153C23.755,11.06 23.629,11.007 23.498,11.006C23.367,11.005 23.241,11.055 23.147,11.147L22.248,12.045C21.841,11.792 21.359,11.684 20.883,11.738C20.406,11.793 19.962,12.008 19.623,12.347L19.089,12.882C18.924,13.046 18.832,13.268 18.832,13.5C18.832,13.732 18.924,13.954 19.089,14.118L20.881,15.912C20.962,15.993 21.059,16.057 21.165,16.101C21.271,16.145 21.385,16.168 21.5,16.168C21.615,16.168 21.729,16.145 21.835,16.101C21.941,16.057 22.037,15.993 22.119,15.912L22.653,15.378C22.992,15.038 23.206,14.594 23.261,14.118C23.316,13.641 23.208,13.16 22.955,12.753L23.854,11.854ZM18.354,15.854C18.445,15.759 18.495,15.633 18.494,15.502C18.493,15.371 18.44,15.245 18.347,15.153C18.255,15.06 18.129,15.007 17.998,15.006C17.867,15.005 17.741,15.055 17.647,15.147L16.912,15.882L16.765,15.735C16.695,15.665 16.599,15.625 16.5,15.625C16.401,15.625 16.305,15.665 16.235,15.735L15.348,16.623C15.008,16.962 14.794,17.406 14.739,17.882C14.684,18.359 14.792,18.84 15.045,19.248L14.147,20.147C14.099,20.193 14.061,20.248 14.035,20.309C14.008,20.37 13.995,20.435 13.994,20.502C13.993,20.568 14.006,20.634 14.031,20.695C14.056,20.757 14.093,20.813 14.14,20.86C14.187,20.907 14.243,20.944 14.305,20.969C14.366,20.994 14.432,21.007 14.498,21.006C14.565,21.006 14.63,20.992 14.691,20.966C14.752,20.939 14.807,20.901 14.854,20.854L15.753,19.955C16.16,20.208 16.641,20.316 17.118,20.261C17.594,20.206 18.038,19.992 18.378,19.653L19.265,18.765C19.335,18.695 19.375,18.599 19.375,18.5C19.375,18.401 19.335,18.305 19.265,18.235L19.119,18.089L19.854,17.354C19.945,17.259 19.995,17.133 19.994,17.002C19.993,16.871 19.94,16.745 19.847,16.653C19.755,16.56 19.629,16.507 19.498,16.506C19.367,16.505 19.241,16.555 19.147,16.647L18.412,17.382L17.619,16.589L18.354,15.854Z" style="fill:rgb(245,158,11);fill-rule:nonzero;"/>
    <path d="M5.102,11.628C5.394,10.876 6.198,10.284 7.072,10.277L16.03,10.281L15.503,12.285L7.151,12.281C7.097,12.282 7.037,12.322 7.015,12.372L4.701,17.877C4.662,17.978 4.715,18.013 4.806,18.011L12.969,18.011L12.979,20.01L5,20C3.343,20 2,18.657 2,17L2,7C2,5.343 3.343,4 5,4L7.784,4C8.478,4 9.151,4.241 9.688,4.682L12.081,6.648C12.26,6.795 12.485,6.875 12.716,6.875L19,6.875C20.657,6.875 22,8.218 22,9.875L22,10.005L20.002,9.998L20,9.875C20,9.323 19.552,8.875 19,8.875L12.716,8.875C12.022,8.875 11.349,8.634 10.812,8.193L8.419,6.227C8.24,6.08 8.015,6 7.784,6L5,6C4.448,6 4,6.448 4,7L4,14.224L5.102,11.628Z" style="fill:rgb(100,115,139);"/>
</svg>
