<?xml version="1.0" encoding="UTF-8" standalone="no"?>
<!DOCTYPE svg PUBLIC "-//W3C//DTD SVG 1.1//EN" "http://www.w3.org/Graphics/SVG/1.1/DTD/svg11.dtd">
<svg width="100%" height="100%" viewBox="0 0 24 24" version="1.1" xmlns="http://www.w3.org/2000/svg" xmlns:xlink="http://www.w3.org/1999/xlink" xml:space="preserve" xmlns:serif="http://www.serif.com/" style="fill-rule:evenodd;clip-rule:evenodd;stroke-linejoin:round;stroke-miterlimit:2;">
    <path d="M23.938,14.273L23.938,14.27C23.929,14.227 23.757,13.421 23.526,13.421C23.349,13.421 22.64,14.219 22.295,14.618C22.172,14.762 21.994,14.842 21.806,14.842C21.448,14.842 21.158,14.552 21.158,14.194C21.158,14.006 21.238,13.828 21.382,13.705C21.781,13.36 22.579,12.651 22.579,12.474C22.579,12.242 21.761,12.065 21.728,12.058C21.727,12.058 21.726,12.058 21.725,12.057C21.54,12.019 21.349,12 21.158,12C19.59,12 18.316,13.287 18.316,14.869C18.316,14.894 18.316,14.92 18.317,14.946C18.327,15.279 18.243,15.62 18.005,15.854L15.445,18.368C14.852,18.969 14.852,19.947 15.445,20.548C15.734,20.839 16.119,21 16.53,21C16.941,21 17.327,20.839 17.61,20.552L20.219,17.989C20.434,17.778 20.738,17.682 21.04,17.684L21.158,17.684C22.751,17.684 24,16.448 24,14.869C24,14.669 23.979,14.469 23.938,14.273Z" style="fill:rgb(192,132,252);fill-rule:nonzero;"/>
    <path d="M5.102,11.628C5.394,10.876 6.198,10.284 7.072,10.277L16.03,10.281L15.503,12.285L7.151,12.281C7.097,12.282 7.037,12.322 7.015,12.372L4.701,17.877C4.662,17.978 4.715,18.013 4.806,18.011L12.953,18.011L12.963,20.01L5,20C3.343,20 2,18.657 2,17L2,7C2,5.343 3.343,4 5,4L7.784,4C8.478,4 9.151,4.241 9.688,4.682L12.081,6.648C12.26,6.795 12.485,6.875 12.716,6.875L19,6.875C20.657,6.875 22,8.218 22,9.875L22,10.005L20.002,9.998L20,9.875C20,9.323 19.552,8.875 19,8.875L12.716,8.875C12.022,8.875 11.349,8.634 10.812,8.193L8.419,6.227C8.24,6.08 8.015,6 7.784,6L5,6C4.448,6 4,6.448 4,7L4,14.224L5.102,11.628Z" style="fill:rgb(100,115,139);"/>
</svg>
