<?xml version="1.0" encoding="UTF-8" standalone="no"?>
<!DOCTYPE svg PUBLIC "-//W3C//DTD SVG 1.1//EN" "http://www.w3.org/Graphics/SVG/1.1/DTD/svg11.dtd">
<svg width="100%" height="100%" viewBox="0 0 24 24" version="1.1" xmlns="http://www.w3.org/2000/svg" xmlns:xlink="http://www.w3.org/1999/xlink" xml:space="preserve" xmlns:serif="http://www.serif.com/" style="fill-rule:evenodd;clip-rule:evenodd;">
    <path d="M19,15.374C19.708,15.374 20.374,15.262 20.884,15.062C21.138,14.962 21.381,14.83 21.57,14.654C21.76,14.478 21.936,14.217 21.936,13.88C21.936,13.543 21.76,13.282 21.57,13.106C21.381,12.93 21.138,12.798 20.884,12.698C20.374,12.498 19.708,12.386 19,12.386C18.293,12.386 17.626,12.498 17.116,12.698C16.863,12.798 16.62,12.93 16.431,13.106C16.241,13.282 16.065,13.543 16.065,13.88C16.065,14.217 16.241,14.478 16.431,14.654C16.62,14.83 16.863,14.962 17.116,15.062C17.626,15.262 18.293,15.374 19,15.374Z" style="fill:none;fill-rule:nonzero;stroke:rgb(244,114,182);stroke-width:1.12px;"/>
    <path d="M16.069,19.239L16.069,14.063L16.557,15.134L16.816,15.886L18.872,15.981L21.729,14.844L21.931,14.063L21.931,19.239C21.931,19.903 21.393,20.441 20.729,20.441L17.271,20.441C16.607,20.441 16.069,19.903 16.069,19.239Z" style="fill:rgb(244,114,182);fill-rule:nonzero;stroke:rgb(244,114,182);stroke-width:1.12px;stroke-linejoin:round;"/>
    <path d="M5.102,11.628C5.394,10.876 6.198,10.284 7.072,10.277L16.03,10.281L15.503,12.285L7.151,12.281C7.097,12.282 7.037,12.322 7.015,12.372L4.701,17.877C4.662,17.978 4.715,18.013 4.806,18.011L12.951,18.015L12.961,20.014L5,20C3.343,20 2,18.657 2,17L2,7C2,5.343 3.343,4 5,4L7.784,4C8.478,4 9.151,4.241 9.688,4.682L12.081,6.648C12.26,6.795 12.485,6.875 12.716,6.875L19,6.875C20.657,6.875 22,8.218 22,9.875L22,10.005L20.002,9.998L20,9.875C20,9.323 19.552,8.875 19,8.875L12.716,8.875C12.022,8.875 11.349,8.634 10.812,8.193L8.419,6.227C8.24,6.08 8.015,6 7.784,6L5,6C4.448,6 4,6.448 4,7L4,14.224L5.102,11.628Z" style="fill:rgb(100,115,139);"/>
</svg>
