<?xml version="1.0" encoding="UTF-8" standalone="no"?>
<!DOCTYPE svg PUBLIC "-//W3C//DTD SVG 1.1//EN" "http://www.w3.org/Graphics/SVG/1.1/DTD/svg11.dtd">
<svg width="100%" height="100%" viewBox="0 0 24 24" version="1.1" xmlns="http://www.w3.org/2000/svg" xmlns:xlink="http://www.w3.org/1999/xlink" xml:space="preserve" xmlns:serif="http://www.serif.com/" style="fill-rule:evenodd;clip-rule:evenodd;stroke-linejoin:round;stroke-miterlimit:2;">
    <circle cx="21" cy="18" r="2" style="fill:rgb(37,99,235);"/>
    <path d="M18,12L18,14C18,14.552 17.552,15 17,15L15,15C14.448,15 14,14.552 14,14L14,12C14,11.448 14.448,11 15,11L17,11C17.552,11 18,11.448 18,12Z" style="fill:rgb(13,148,136);"/>
    <path d="M16,16.5L17.732,19.5L14.268,19.5L16,16.5Z" style="fill:rgb(34,211,238);fill-rule:nonzero;"/>
    <path d="M20.308,11.871C20.545,11.229 21.455,11.229 21.693,11.871C21.767,12.073 21.927,12.233 22.129,12.307C22.772,12.545 22.772,13.455 22.129,13.693C21.927,13.767 21.767,13.927 21.693,14.129C21.455,14.772 20.545,14.772 20.308,14.129C20.233,13.927 20.073,13.767 19.871,13.693C19.229,13.455 19.229,12.545 19.871,12.307C20.073,12.233 20.233,12.073 20.308,11.871Z" style="fill:rgb(192,132,252);fill-rule:nonzero;"/>
    <path d="M5.102,11.628C5.394,10.876 6.198,10.284 7.072,10.277L13.8,10.24L13.273,12.244L7.151,12.281C7.097,12.282 7.037,12.322 7.015,12.372L4.701,17.877C4.662,17.978 4.715,18.013 4.806,18.011L13.032,18.011L13.042,20.01L5,20C3.343,20 2,18.657 2,17L2,7C2,5.343 3.343,4 5,4L7.784,4C8.478,4 9.151,4.241 9.688,4.682L12.081,6.648C12.26,6.795 12.485,6.875 12.716,6.875L19,6.875C20.657,6.875 22,8.218 22,9.875L22,10.005L20.002,9.998L20,9.875C20,9.323 19.552,8.875 19,8.875L12.716,8.875C12.022,8.875 11.349,8.634 10.812,8.193L8.419,6.227C8.24,6.08 8.015,6 7.784,6L5,6C4.448,6 4,6.448 4,7L4,14.224L5.102,11.628Z" style="fill:rgb(100,115,139);"/>
</svg>
