<?xml version="1.0" encoding="UTF-8" standalone="no"?>
<!DOCTYPE svg PUBLIC "-//W3C//DTD SVG 1.1//EN" "http://www.w3.org/Graphics/SVG/1.1/DTD/svg11.dtd">
<svg width="100%" height="100%" viewBox="0 0 24 24" version="1.1" xmlns="http://www.w3.org/2000/svg" xmlns:xlink="http://www.w3.org/1999/xlink" xml:space="preserve" xmlns:serif="http://www.serif.com/" style="fill-rule:evenodd;clip-rule:evenodd;stroke-linejoin:round;">
    <path d="M23.125,13.5L23.125,18.5C23.125,19.397 22.397,20.125 21.5,20.125L16.5,20.125C15.603,20.125 14.875,19.397 14.875,18.5L14.875,13.5C14.875,12.603 15.603,11.875 16.5,11.875L21.5,11.875C22.397,11.875 23.125,12.603 23.125,13.5Z" style="fill:none;stroke:rgb(192,132,252);stroke-width:1.25px;"/>
    <circle cx="20.5" cy="14.5" r="1" style="fill:rgb(192,132,252);"/>
    <path d="M15.5,19.5L18.293,16.707C18.683,16.317 19.317,16.317 19.707,16.707L22.5,19.5" style="fill:none;fill-rule:nonzero;stroke:rgb(192,132,252);stroke-width:1.25px;"/>
    <path d="M5.102,11.628C5.394,10.876 6.198,10.284 7.072,10.277L14.025,10.281L13.498,12.285L7.151,12.281C7.097,12.282 7.037,12.322 7.015,12.372L4.701,17.877C4.662,17.978 4.715,18.013 4.806,18.011L12.969,18.011L12.979,20.01L5,20C3.343,20 2,18.657 2,17L2,7C2,5.343 3.343,4 5,4L7.784,4C8.478,4 9.151,4.241 9.688,4.682L12.081,6.648C12.26,6.795 12.485,6.875 12.716,6.875L19,6.875C20.657,6.875 22,8.218 22,9.875L22,10.005L20.002,9.998L20,9.875C20,9.323 19.552,8.875 19,8.875L12.716,8.875C12.022,8.875 11.349,8.634 10.812,8.193L8.419,6.227C8.24,6.08 8.015,6 7.784,6L5,6C4.448,6 4,6.448 4,7L4,14.224L5.102,11.628Z" style="fill:rgb(100,115,139);"/>
</svg>
