<?xml version="1.0" encoding="UTF-8" standalone="no"?>
<!DOCTYPE svg PUBLIC "-//W3C//DTD SVG 1.1//EN" "http://www.w3.org/Graphics/SVG/1.1/DTD/svg11.dtd">
<svg width="100%" height="100%" viewBox="0 0 24 24" version="1.1" xmlns="http://www.w3.org/2000/svg" xmlns:xlink="http://www.w3.org/1999/xlink" xml:space="preserve" xmlns:serif="http://www.serif.com/" style="fill-rule:evenodd;clip-rule:evenodd;">
    <path d="M18.902,12.666C18.902,11.746 19.652,11 20.576,11C20.795,11 21.012,11.042 21.215,11.126C21.418,11.209 21.602,11.332 21.758,11.487C21.913,11.641 22.037,11.825 22.121,12.028C22.206,12.23 22.25,12.447 22.25,12.666C22.25,13.587 21.5,14.334 20.576,14.334C20.354,14.334 20.134,14.29 19.93,14.205C19.725,14.119 19.539,13.994 19.384,13.836L17.066,15.415C17.131,15.736 17.099,16.069 16.975,16.373L19.516,18.043C19.815,17.799 20.19,17.666 20.576,17.667C20.795,17.666 21.013,17.709 21.216,17.792C21.418,17.876 21.603,17.999 21.758,18.153C21.914,18.308 22.037,18.492 22.122,18.695C22.206,18.897 22.25,19.114 22.25,19.334C22.25,20.254 21.5,21 20.576,21C20.133,21.001 19.707,20.826 19.393,20.513C19.08,20.201 18.903,19.777 18.902,19.334C18.901,19.1 18.95,18.869 19.046,18.656L16.525,17C16.22,17.266 15.829,17.411 15.424,17.411C15.205,17.411 14.987,17.368 14.784,17.285C14.582,17.201 14.397,17.079 14.242,16.924C14.086,16.769 13.963,16.585 13.878,16.383C13.794,16.18 13.75,15.963 13.75,15.743C13.751,15.524 13.794,15.307 13.879,15.105C13.963,14.902 14.086,14.718 14.242,14.564C14.397,14.409 14.582,14.286 14.785,14.203C14.987,14.119 15.205,14.076 15.424,14.077C15.956,14.077 16.429,14.323 16.735,14.708L18.982,13.178C18.929,13.013 18.901,12.84 18.902,12.666Z" style="fill:rgb(139,92,246);stroke:rgb(139,92,246);stroke-width:0.5px;"/>
    <path d="M5.102,11.628C5.394,10.876 6.198,10.284 7.072,10.277L16.03,10.281L15.503,12.285L7.151,12.281C7.097,12.282 7.037,12.322 7.015,12.372L4.701,17.877C4.662,17.978 4.715,18.013 4.806,18.011L12.96,18.01L12.97,20.009L5,20C3.343,20 2,18.657 2,17L2,7C2,5.343 3.343,4 5,4L7.784,4C8.478,4 9.151,4.241 9.688,4.682L12.081,6.648C12.26,6.795 12.485,6.875 12.716,6.875L19,6.875C20.657,6.875 22,8.218 22,9.875L22,10.005L20.002,9.998L20,9.875C20,9.323 19.552,8.875 19,8.875L12.716,8.875C12.022,8.875 11.349,8.634 10.812,8.193L8.419,6.227C8.24,6.08 8.015,6 7.784,6L5,6C4.448,6 4,6.448 4,7L4,14.224L5.102,11.628Z" style="fill:rgb(100,115,139);"/>
</svg>
