<?xml version="1.0" encoding="UTF-8" standalone="no"?>
<!DOCTYPE svg PUBLIC "-//W3C//DTD SVG 1.1//EN" "http://www.w3.org/Graphics/SVG/1.1/DTD/svg11.dtd">
<svg width="100%" height="100%" viewBox="0 0 24 24" version="1.1" xmlns="http://www.w3.org/2000/svg" xmlns:xlink="http://www.w3.org/1999/xlink" xml:space="preserve" xmlns:serif="http://www.serif.com/" style="fill-rule:evenodd;clip-rule:evenodd;stroke-linejoin:round;stroke-miterlimit:2;">
    <path d="M17,13L17,19C17,19.552 16.552,20 16,20C15.448,20 15,19.552 15,19L15,13C15,12.448 15.448,12 16,12C16.552,12 17,12.448 17,13Z" style="fill:rgb(161,161,170);"/>
    <path d="M20,13L20,19C20,19.552 19.552,20 19,20C18.448,20 18,19.552 18,19L18,13C18,12.448 18.448,12 19,12C19.552,12 20,12.448 20,13Z" style="fill:rgb(161,161,170);"/>
    <path d="M23,13L23,19C23,19.552 22.552,20 22,20C21.448,20 21,19.552 21,19L21,13C21,12.448 21.448,12 22,12C22.552,12 23,12.448 23,13Z" style="fill:rgb(161,161,170);"/>
    <path d="M5.102,11.628C5.394,10.876 6.198,10.284 7.072,10.277L14.721,10.28L14.194,12.284L7.151,12.281C7.097,12.282 7.037,12.322 7.015,12.372L4.701,17.877C4.662,17.978 4.715,18.013 4.806,18.011L12.988,18.014L12.998,20.013L5,20C3.343,20 2,18.657 2,17L2,7C2,5.343 3.343,4 5,4L7.784,4C8.478,4 9.151,4.241 9.688,4.682L12.081,6.648C12.26,6.795 12.485,6.875 12.716,6.875L19,6.875C20.657,6.875 22,8.218 22,9.875L22,10.005L20.002,9.998L20,9.875C20,9.323 19.552,8.875 19,8.875L12.716,8.875C12.022,8.875 11.349,8.634 10.812,8.193L8.419,6.227C8.24,6.08 8.015,6 7.784,6L5,6C4.448,6 4,6.448 4,7L4,14.224L5.102,11.628Z" style="fill:rgb(100,115,139);"/>
</svg>
