<?xml version="1.0" encoding="UTF-8" standalone="no"?>
<!DOCTYPE svg PUBLIC "-//W3C//DTD SVG 1.1//EN" "http://www.w3.org/Graphics/SVG/1.1/DTD/svg11.dtd">
<svg width="100%" height="100%" viewBox="0 0 24 24" version="1.1" xmlns="http://www.w3.org/2000/svg" xmlns:xlink="http://www.w3.org/1999/xlink" xml:space="preserve" xmlns:serif="http://www.serif.com/" style="fill-rule:evenodd;clip-rule:evenodd;stroke-linejoin:round;stroke-miterlimit:2;">
    <path d="M18.5,11.42C16.014,11.42 14,13.522 14,16.116C14,18.194 15.288,19.949 17.077,20.571C17.302,20.612 17.386,20.471 17.386,20.348C17.386,20.236 17.381,19.866 17.381,19.473C16.25,19.69 15.958,19.186 15.868,18.922C15.817,18.787 15.598,18.37 15.406,18.258C15.249,18.17 15.024,17.953 15.401,17.947C15.755,17.941 16.008,18.288 16.093,18.428C16.498,19.139 17.144,18.939 17.403,18.816C17.443,18.511 17.561,18.305 17.69,18.188C16.689,18.07 15.643,17.665 15.643,15.869C15.643,15.359 15.817,14.936 16.104,14.607C16.059,14.49 15.901,14.009 16.149,13.363C16.149,13.363 16.526,13.24 17.386,13.844C17.746,13.739 18.129,13.686 18.511,13.686C18.894,13.686 19.276,13.739 19.636,13.844C20.497,13.234 20.874,13.363 20.874,13.363C21.121,14.009 20.964,14.49 20.919,14.607C21.206,14.936 21.38,15.353 21.38,15.869C21.38,17.671 20.328,18.07 19.327,18.188C19.49,18.334 19.631,18.616 19.631,19.057C19.631,19.685 19.625,20.189 19.625,20.348C19.625,20.471 19.709,20.618 19.934,20.571C20.828,20.256 21.604,19.657 22.154,18.858C22.704,18.059 23,17.1 23,16.116C23,13.522 20.986,11.42 18.5,11.42Z" style="fill:rgb(161,161,170);"/>
    <path d="M5.102,11.628C5.394,10.876 6.198,10.284 7.072,10.277L16.03,10.281L15.503,12.285L7.151,12.281C7.097,12.282 7.037,12.322 7.015,12.372L4.701,17.877C4.662,17.978 4.715,18.013 4.806,18.011L12.951,18.015L12.961,20.014L5,20C3.343,20 2,18.657 2,17L2,7C2,5.343 3.343,4 5,4L7.784,4C8.478,4 9.151,4.241 9.688,4.682L12.081,6.648C12.26,6.795 12.485,6.875 12.716,6.875L19,6.875C20.657,6.875 22,8.218 22,9.875L22,10.005L20.002,9.998L20,9.875C20,9.323 19.552,8.875 19,8.875L12.716,8.875C12.022,8.875 11.349,8.634 10.812,8.193L8.419,6.227C8.24,6.08 8.015,6 7.784,6L5,6C4.448,6 4,6.448 4,7L4,14.224L5.102,11.628Z" style="fill:rgb(100,115,139);"/>
</svg>
